<svg width="26" height="26" viewBox="0 0 26 26" fill="none" xmlns="http://www.w3.org/2000/svg">
<g id="Group 1000003882">
<path id="Vector" d="M9.95806 22.7265C13.1246 22.7265 15.6915 20.1596 15.6915 16.9931C15.6915 13.8266 13.1246 11.2596 9.95806 11.2596C6.79156 11.2596 4.22461 13.8266 4.22461 16.9931C4.22461 20.1596 6.79156 22.7265 9.95806 22.7265Z" stroke="#211E24" stroke-miterlimit="10" stroke-linecap="round"/>
<path id="Vector_2" d="M7.76392 16.848L9.26214 18.3664L12.1524 15.6195" stroke="#211E24" stroke-linecap="round" stroke-linejoin="round"/>
<path id="Vector_3" d="M24.799 8.99088L23.0414 10.9781C22.7416 11.317 22.6668 11.7992 22.8512 12.2124C23.1078 12.7869 23.3637 13.5218 23.505 14.3931C24.0707 17.8836 22.3088 20.5617 21.9673 21.0605C21.6014 21.595 19.6597 24.4312 16.1431 24.9267C15.6925 24.9902 15.2674 25.008 14.8763 24.9969C14.1567 24.9764 13.788 24.1249 14.2633 23.5842L17.3379 20.0864C18.2013 19.1041 18.47 17.7334 18.0414 16.4978L16.0331 10.7088C15.8969 10.3164 15.5606 10.0273 15.1523 9.95152L9.50047 8.90331C8.15284 8.65337 6.77223 9.12241 5.85575 10.1416L2.95687 13.3652C2.46548 13.9116 1.55675 13.6159 1.48503 12.8846C1.45914 12.6206 1.44414 12.3406 1.44459 12.0465C1.45072 8.06779 4.2788 5.52718 4.47957 5.35258C4.75453 5.11345 7.34829 2.92922 11.0395 3.21983C11.899 3.28749 12.6372 3.47511 13.2232 3.67798C13.6667 3.83148 14.1582 3.70433 14.469 3.35284L16.2052 1.38989C16.6279 0.91198 17.358 0.867222 17.8359 1.28993L24.699 7.36017C25.1769 7.78287 25.2217 8.51296 24.799 8.99088Z" stroke="#211E24" stroke-miterlimit="10" stroke-linecap="round"/>
</g>
</svg>
