<svg width="36" height="36" viewBox="0 0 36 36" fill="none" xmlns="http://www.w3.org/2000/svg">
<g id="noun-hand-truck-4954548 1" opacity="0.9">
<g id="Group 1000003883">
<g id="Group">
<path id="Vector" d="M22.7424 22.9704C21.6658 21.7082 20.7087 21.37 20.0262 21.2988C18.783 21.1693 18.0729 21.8864 16.0214 22.3784C14.8843 22.6511 13.9156 22.7154 13.2704 22.7266C12.6879 22.8258 12.2764 23.3337 12.2953 23.8758C12.3165 24.4867 12.8794 25.0034 13.549 24.9554H19.2252" stroke="#211E24" stroke-miterlimit="10" stroke-linecap="round"/>
<path id="Vector_2" d="M12.2172 23.7015L6.33087 20.6261L5.89709 20.3798C5.25073 19.9853 4.44693 20.2207 4.17288 20.7415C3.92935 21.2042 4.10177 21.8966 4.66041 22.2737C7.44631 24.0033 10.2322 25.7329 13.0181 27.4625L14.2405 28.1369C14.7639 28.4257 15.3508 28.5796 15.9485 28.5848C18.3148 28.6053 21.5365 28.6259 23.9028 28.6465" stroke="#211E24" stroke-miterlimit="10" stroke-linecap="round"/>
</g>
<path id="Vector_3" d="M26.2663 21.5341H26.2663C27.4624 21.5341 28.432 22.5037 28.432 23.6998V27.8343C28.432 29.0304 27.4624 30 26.2663 30H26.2663C25.0702 30 24.1006 29.0304 24.1006 27.8343V23.6998C24.1006 22.5037 25.0702 21.5341 26.2663 21.5341Z" stroke="#211E24" stroke-miterlimit="10" stroke-linecap="round"/>
<path id="Vector_4" d="M22.3873 6.03967H7.97843C6.92595 6.03967 6.07275 6.89287 6.07275 7.94535V16.2613C6.07275 17.3138 6.92595 18.167 7.97843 18.167H22.3873C23.4398 18.167 24.293 17.3138 24.293 16.2613V7.94535C24.293 6.89287 23.4398 6.03967 22.3873 6.03967Z" stroke="#211E24" stroke-miterlimit="10" stroke-linecap="round"/>
<path id="Vector_5" d="M17.0777 6H13.8457V18.1707H17.0777V6Z" stroke="#211E24" stroke-miterlimit="10" stroke-linecap="round"/>
<path id="Vector_6" d="M24.3779 13.0898H27.9484" stroke="#211E24" stroke-miterlimit="10" stroke-linecap="round"/>
<path id="Vector_7" d="M24.3779 15.2415H29.746" stroke="#211E24" stroke-miterlimit="10" stroke-linecap="round"/>
<path id="Vector_8" d="M24.3779 17.1777H31.213" stroke="#211E24" stroke-miterlimit="10" stroke-linecap="round"/>
</g>
</g>
</svg>
