<svg width="90" height="90" viewBox="0 0 90 90" fill="none" xmlns="http://www.w3.org/2000/svg">
<g opacity="0.6">
<path d="M63.0002 29.3399L47.3402 20.3399C45.9002 19.5299 44.1002 19.5299 42.6602 20.3399L27.0002 29.3399C25.5602 30.1499 24.6602 31.7699 24.6602 33.3899V49.4999C24.6602 57.5999 28.9802 65.1599 36.0002 69.2099L42.6602 73.0799C43.3802 73.5299 44.1902 73.7099 45.0002 73.7099C45.8102 73.7099 46.6202 73.5299 47.3402 73.0799L54.0902 69.2099C61.0202 65.2499 65.3402 57.7799 65.3402 49.7699V33.3899C65.3402 31.6799 64.4402 30.1499 63.0002 29.3399ZM63.6301 49.6799C63.6301 57.0599 59.6702 63.9899 53.2802 67.6799L46.5302 71.5499C45.6302 72.0899 44.4602 72.0899 43.5602 71.5499L36.9002 67.6799C30.4202 63.9899 26.3702 56.9699 26.3702 49.4999V33.3899C26.3702 32.3099 26.9102 31.3199 27.8102 30.8699L43.4702 21.8699C43.9202 21.5999 44.4602 21.5099 44.9102 21.5099C45.4502 21.5099 45.9002 21.5999 46.3502 21.8699L62.0102 30.8699C62.9102 31.4099 63.4502 32.3999 63.4502 33.3899V49.6799H63.6301Z" fill="#211E24"/>
<path d="M45 35.01C39.15 35.01 34.29 39.78 34.29 45.72C34.29 51.57 39.06 56.43 45 56.43C50.85 56.43 55.71 51.66 55.71 45.72C55.71 39.78 50.85 35.01 45 35.01ZM45 54.63C40.05 54.63 36.09 50.67 36.09 45.72C36.09 40.77 40.05 36.81 45 36.81C49.95 36.81 53.91 40.77 53.91 45.72C53.91 50.67 49.95 54.63 45 54.63Z" fill="#211E24"/>
<path d="M48.7806 41.85L43.3806 46.98L41.1306 44.82C40.7706 44.46 40.2306 44.46 39.8706 44.82C39.5106 45.18 39.5106 45.72 39.8706 46.08L42.6606 48.87C42.8406 49.05 43.0206 49.14 43.2906 49.14C43.4706 49.14 43.7406 49.05 43.9206 48.87L49.8606 43.2C50.2206 42.84 50.2206 42.3 49.8606 41.94C49.6806 41.49 49.1406 41.49 48.7806 41.85Z" fill="#211E24"/>
</g>
</svg>
