<svg width="9" height="16" viewBox="0 0 9 16" fill="none" xmlns="http://www.w3.org/2000/svg">
<path d="M5 6.02865H8.75L8.33333 7.69531H5V15.1953H3.33333V7.69531H0V6.02865H3.33333V4.46865C3.33333 2.98281 3.48833 2.44365 3.77833 1.90031C4.06251 1.36348 4.50151 0.924487 5.03833 0.640312C5.58167 0.350312 6.12083 0.195312 7.60667 0.195312C8.04167 0.195312 8.42333 0.236979 8.75 0.320312V1.86198H7.60667C6.50333 1.86198 6.1675 1.92698 5.825 2.11031C5.57167 2.24531 5.38333 2.43365 5.24833 2.68698C5.065 3.02948 5 3.36531 5 4.46865V6.02865Z" fill="black"/>
</svg>
