<svg width="36" height="36" viewBox="0 0 36 36" fill="none" xmlns="http://www.w3.org/2000/svg">
<g id="Financial support 1" opacity="0.9">
<g id="Group">
<path id="Vector" d="M13.1938 18.2363C13.1938 21.0363 15.4423 23.2848 18.2423 23.2848C21.0423 23.2848 23.2908 21.0363 23.2908 18.2363C23.2908 15.4363 21.0423 13.1879 18.2423 13.1879C15.4848 13.1879 13.1938 15.4788 13.1938 18.2363ZM22.4423 18.2363C22.4423 20.5697 20.5757 22.4363 18.2423 22.4363C15.909 22.4363 14.0423 20.5697 14.0423 18.2363C14.0423 15.903 15.909 14.0363 18.2423 14.0363C20.5757 14.0363 22.4423 15.9454 22.4423 18.2363Z" fill="black"/>
<path id="Vector_2" d="M17.988 15.9879V16.5818C17.4364 16.6666 17.0546 17.0485 17.0546 17.5576C17.0546 18.1091 17.4364 18.3636 18.0728 18.6182C18.5395 18.7879 18.7516 19 18.7516 19.3394C18.7516 19.6788 18.4546 19.9333 18.0304 19.9333C17.691 19.9333 17.3516 19.806 17.1395 19.6788L17.0122 20.103C17.2243 20.2727 17.6061 20.3575 17.9455 20.3575V20.9939H18.3274V20.4C18.9637 20.3151 19.3031 19.8485 19.3031 19.3394C19.3031 18.7879 18.9637 18.4909 18.3698 18.1939C17.8183 17.9818 17.6061 17.8121 17.6061 17.4727C17.6061 17.2182 17.7758 16.9636 18.2425 16.9636C18.6243 16.9636 18.8789 17.0909 19.0061 17.1757L19.1758 16.7515C19.0061 16.6666 18.7516 16.5394 18.3698 16.5394V15.9454H17.988V15.9879Z" fill="black"/>
<path id="Vector_3" d="M10.9879 10.091V7.37587L16.5879 7.4183C16.9697 7.4183 17.3091 7.50315 17.606 7.67284L18.4545 8.13951L24.4788 11.8728C24.6909 12.0425 24.7757 12.2971 24.6909 12.4244C24.6484 12.5092 24.5636 12.5516 24.4788 12.594C24.3515 12.6365 24.1818 12.594 24.0545 12.5092L19.6 10.1759C19.5575 9.92132 19.4303 9.66678 19.2182 9.45466C18.9636 9.24254 18.6242 9.11526 18.2848 9.11526H14.1697C13.9151 9.11526 13.7454 9.28496 13.7454 9.53951C13.7454 9.79405 13.9151 9.96375 14.1697 9.96375H18.3272C18.4545 9.96375 18.5818 10.0062 18.6666 10.091C18.7515 10.1759 18.7939 10.2607 18.7939 10.3456C18.7939 10.5153 18.6666 10.685 18.4545 10.7274C17.7757 10.7274 17.0969 10.8122 16.4182 10.9819C15.7818 11.1516 15.3151 11.3213 14.9333 11.491C14.4242 11.7031 14.0848 11.8304 13.6606 11.788C13.1091 11.7456 12.5151 11.3637 11.9636 10.7274C11.7939 10.5577 11.5394 10.5153 11.3697 10.685C11.2 10.8547 11.1576 11.1092 11.3273 11.2789C12.0061 12.085 12.7697 12.5516 13.5757 12.6365C13.6606 12.6365 13.7454 12.6365 13.8303 12.6365C14.3394 12.6365 14.7636 12.4668 15.2303 12.2971C15.6121 12.1698 16.0363 12.0001 16.6303 11.8304C17.2666 11.7031 17.903 11.6183 18.5394 11.5759H18.6242C19.006 11.5334 19.303 11.3213 19.4727 11.0244L23.3757 13.0607L23.6727 13.2304C23.8848 13.3577 24.1394 13.4425 24.3939 13.4425C24.5212 13.4425 24.6484 13.4425 24.7757 13.4001C25.1151 13.3153 25.3697 13.1031 25.5394 12.8062C25.8363 12.2547 25.6242 11.5334 25.0303 11.1516L18.9636 7.37587L18.0727 6.86678C17.6485 6.61224 17.1394 6.48497 16.6303 6.48497L10.903 6.44254C10.6485 5.63648 9.88484 5.00012 8.99393 5.00012C7.89091 5.00012 7 5.89103 7 6.99406V10.0062C7 11.1092 7.89091 12.0001 8.99393 12.0001C10.097 12.085 10.9879 11.194 10.9879 10.091ZM10.1394 10.091C10.1394 10.7274 9.6303 11.2365 8.99393 11.2365C8.35757 11.2365 7.84848 10.7274 7.84848 10.091V7.07891C7.84848 6.44254 8.35757 5.93345 8.99393 5.93345C9.6303 5.93345 10.1394 6.44254 10.1394 7.07891V10.091Z" fill="black"/>
<path id="Vector_4" d="M26.4304 24.4727C25.3274 24.4727 24.4364 25.3636 24.4364 26.4666V29.4787C24.4364 29.5211 24.4364 29.606 24.4364 29.6484L19.0062 29.5636C18.6243 29.5636 18.2849 29.4787 17.988 29.309L17.1395 28.8424L11.0728 25.0666C10.8607 24.8969 10.7759 24.6424 10.8607 24.5151C10.9031 24.4302 10.988 24.3878 11.0728 24.3454C11.2001 24.303 11.3698 24.3454 11.4971 24.4302L15.9516 26.7636C15.994 27.0181 16.1213 27.2727 16.3334 27.4848C16.588 27.6969 16.8849 27.8242 17.1819 27.8242C17.2243 27.8242 17.2243 27.8242 17.2668 27.8242H21.3819C21.6364 27.8242 21.8061 27.6545 21.8061 27.3999C21.8061 27.1454 21.6364 26.9757 21.3819 26.9757H17.2243C17.0971 26.9757 16.9698 26.9333 16.8849 26.8484C16.8001 26.7636 16.7577 26.6787 16.7577 26.5939C16.7577 26.4242 16.8849 26.2545 17.0971 26.212C17.7759 26.212 18.4546 26.1272 19.1334 25.9575C19.7698 25.7878 20.2365 25.6181 20.6183 25.4484C21.1274 25.2363 21.4668 25.109 21.891 25.1514C22.4425 25.1939 23.0364 25.5757 23.588 26.212C23.7577 26.3817 24.0122 26.4242 24.1819 26.2545C24.3516 26.0848 24.394 25.8302 24.2243 25.6605C23.5455 24.8545 22.7819 24.3878 21.9758 24.303C21.3395 24.2181 20.8728 24.4302 20.3213 24.6424C19.9395 24.7696 19.5152 24.9393 18.9213 25.109C18.2849 25.2787 17.6486 25.3211 17.0122 25.3636H16.9274C16.5456 25.406 16.2486 25.6181 16.0789 25.9151L12.2183 23.8363L11.9213 23.6666C11.5819 23.4545 11.2001 23.4121 10.8183 23.4969C10.4789 23.5818 10.2244 23.7939 10.0547 24.0908C9.75769 24.6424 9.96981 25.3636 10.5637 25.7454L16.6304 29.5211L17.5213 30.0302C17.9455 30.2848 18.4546 30.412 18.9637 30.412L24.7334 30.4545C25.0728 31.0484 25.7092 31.4302 26.4304 31.4302C27.5334 31.4302 28.4243 30.5393 28.4243 29.4363V26.4242C28.4243 25.3636 27.5334 24.4727 26.4304 24.4727ZM27.5758 29.4363C27.5758 30.0727 27.0667 30.5817 26.4304 30.5817C25.794 30.5817 25.2849 30.0727 25.2849 29.4363V26.4242C25.2849 25.7878 25.794 25.2787 26.4304 25.2787C27.0667 25.2787 27.5758 25.7878 27.5758 26.4242V29.4363Z" fill="black"/>
</g>
</g>
</svg>
