<svg width="36" height="36" viewBox="0 0 36 36" fill="none" xmlns="http://www.w3.org/2000/svg">
<g id="noun-drilling-machines-5290277 1" opacity="0.9">
<g id="Group 1000003885">
<path id="Vector" d="M26.4496 16.2582C25.9399 16.2088 25.4322 16.139 24.9232 16.0821C24.8118 16.0696 24.7496 16.0191 24.7112 15.9134C24.6466 15.7352 24.579 15.5566 24.493 15.3882C24.4298 15.2645 24.4535 15.1798 24.5352 15.0782C24.8528 14.6834 25.1637 14.2832 25.4758 13.884C25.7791 13.4962 25.7586 13.12 25.4133 12.7733C24.8808 12.2387 24.3472 11.7052 23.8128 11.1725C23.4591 10.8199 23.0854 10.8019 22.6893 11.1137C22.2866 11.4307 21.8817 11.745 21.4814 12.0649C21.3938 12.1349 21.3179 12.148 21.2152 12.0983C21.0497 12.0184 20.8811 11.9414 20.7069 11.8845C20.5653 11.8383 20.5096 11.7603 20.4946 11.6132C20.4426 11.1037 20.3809 10.5951 20.3151 10.0871C20.2564 9.63401 19.9626 9.38054 19.5072 9.37993C18.7468 9.37888 17.9865 9.37929 17.2262 9.37976C16.7312 9.38007 16.4427 9.64135 16.3873 10.1313C16.3298 10.6403 16.2661 11.1485 16.2092 11.6576C16.1968 11.7685 16.1478 11.8314 16.0414 11.87C15.8632 11.9345 15.6853 12.0036 15.5166 12.0892C15.3939 12.1514 15.3085 12.1301 15.2062 12.0478C14.8071 11.7265 14.4024 11.4118 13.9984 11.0966C13.6268 10.8067 13.247 10.8281 12.9141 11.1558C12.791 11.2771 11.3956 12.6731 11.3072 12.7623C10.9454 13.1272 10.926 13.4921 11.2452 13.8983C11.5584 14.2967 11.869 14.6971 12.1853 15.0929C12.2584 15.1844 12.2783 15.2633 12.2232 15.3737C12.1412 15.538 12.0663 15.7076 12.0089 15.8818C11.9644 16.0167 11.8904 16.0719 11.7504 16.0865C11.2411 16.1397 10.7325 16.2016 10.2243 16.2653C9.76236 16.3233 9.5074 16.6159 9.50688 17.0817C9.50602 17.8363 9.50639 18.5908 9.50673 19.3454C9.50696 19.8592 9.77017 20.1425 10.2824 20.1975C10.7859 20.2514 11.2882 20.3168 11.7914 20.3739C11.895 20.3857 11.9566 20.4318 11.9938 20.5308C12.0623 20.7137 12.1331 20.8967 12.2184 21.0721C12.2743 21.1872 12.2606 21.2697 12.1815 21.368C11.8676 21.7583 11.5616 22.155 11.2518 22.5487C10.9243 22.9646 10.9424 23.3271 11.3123 23.6975C11.8373 24.2233 12.3625 24.7488 12.8885 25.2736C13.2518 25.6361 13.6204 25.6559 14.0247 25.3378C14.423 25.0246 14.8234 24.714 15.2193 24.3977C15.3103 24.3249 15.3891 24.3038 15.5 24.3577C15.6755 24.443 15.857 24.5178 16.0406 24.5838C16.1561 24.6254 16.198 24.6979 16.2109 24.8134C16.2629 25.2767 16.3413 25.7379 16.3719 26.2023C16.3999 26.6262 16.5713 26.9223 16.9721 27.0757H19.7372C20.1462 26.9199 20.3109 26.6129 20.3393 26.186C20.3698 25.7276 20.4477 25.2725 20.4977 24.8152C20.5114 24.6903 20.5619 24.6207 20.683 24.5791C20.862 24.5177 21.0387 24.446 21.2081 24.3619C21.3181 24.3073 21.3953 24.3213 21.488 24.3956C21.8831 24.7122 22.2837 25.0219 22.6814 25.3353C23.0907 25.6581 23.4581 25.637 23.8299 25.2658C24.3512 24.7453 24.8722 24.2244 25.3926 23.703C25.7638 23.331 25.7854 22.9648 25.4627 22.5542C25.1498 22.1561 24.8393 21.7561 24.5229 21.3608C24.4494 21.2688 24.4331 21.1901 24.4866 21.0801C24.5718 20.9048 24.6446 20.7227 24.7119 20.5396C24.7508 20.4336 24.8145 20.3853 24.9253 20.373C25.4339 20.3162 25.9412 20.2466 26.4505 20.197C26.8325 20.1598 27.0654 19.951 27.2027 19.6101V16.8451C27.0653 16.5037 26.8321 16.2952 26.4496 16.2582Z" stroke="#211E24" stroke-miterlimit="10" stroke-linecap="round"/>
<path id="Vector_2" d="M16.1786 24.9048V22.5165C16.1786 22.3903 16.1132 22.2751 16.009 22.2041C14.6616 21.2862 13.9091 19.7052 14.0637 18.0842C14.198 16.6758 14.9995 15.423 16.1951 14.6947C16.4474 14.5409 16.7706 14.7208 16.7665 15.0163L16.724 18.0845C16.7221 18.2184 16.7923 18.3431 16.9078 18.411L18.356 19.263C18.483 19.3376 18.642 19.3306 18.7618 19.245L19.9296 18.4109C20.0262 18.3419 20.0842 18.231 20.0857 18.1123L20.1288 14.7922C20.1328 14.4892 20.477 14.3158 20.7212 14.4953C21.4648 15.0416 22.6655 16.2053 22.7948 18.0842C22.9094 19.7481 22.141 21.3532 20.783 22.3157C20.6855 22.3848 20.6236 22.4934 20.6203 22.6128C20.604 23.2002 20.5877 24.2143 20.5713 24.8017" stroke="#211E24" stroke-miterlimit="10" stroke-linecap="round"/>
<path id="Vector_3" d="M6.56104 15.7917C7.78737 10.4761 12.0904 6.55882 17.0442 6.05527C23.0805 5.44167 29.0968 9.99689 30.2429 16.7497" stroke="#211E24" stroke-miterlimit="10" stroke-linecap="round"/>
<path id="Vector_4" d="M30.2561 19.702C29.2184 25.2734 24.7488 29.4435 19.5486 29.9484C13.4332 30.5421 7.43912 25.957 6.34985 19.254" stroke="#211E24" stroke-miterlimit="10" stroke-linecap="round"/>
<path id="Vector_5" d="M5.34937 14.1433L6.38386 16.7455C7.01503 16.1032 7.64624 15.4609 8.27741 14.8186" stroke="#211E24" stroke-miterlimit="10" stroke-linecap="round"/>
<path id="Vector_6" d="M31.4698 21.3644L30.4353 18.7622C29.8041 19.4045 29.1729 20.0468 28.5417 20.6891" stroke="#211E24" stroke-miterlimit="10" stroke-linecap="round"/>
</g>
</g>
</svg>
