<svg width="21" height="21" viewBox="0 0 21 21" fill="none" xmlns="http://www.w3.org/2000/svg">
<path fill-rule="evenodd" clip-rule="evenodd" d="M13.6023 2.24141C12.714 2.19974 12.4315 2.19141 10.1673 2.19141C7.90315 2.19141 7.62065 2.20224 6.73232 2.24141C5.84398 2.28307 5.24065 2.42224 4.70898 2.62891C4.15267 2.83785 3.64871 3.16577 3.23232 3.58974C2.80799 4.00584 2.48001 4.50989 2.27148 5.06641C2.06482 5.59807 1.92565 6.20141 1.88398 7.08974C1.84232 7.97807 1.83398 8.26057 1.83398 10.5247C1.83398 12.7889 1.84482 13.0714 1.88398 13.9597C1.92565 14.8472 2.06482 15.4522 2.27148 15.9831C2.48059 16.5393 2.80849 17.0432 3.23232 17.4597C3.64859 17.8839 4.15259 18.2118 4.70898 18.4206C5.24065 18.6264 5.84482 18.7664 6.73232 18.8081C7.62065 18.8497 7.90315 18.8581 10.1673 18.8581C12.4315 18.8581 12.714 18.8472 13.6023 18.8081C14.4898 18.7664 15.0948 18.6264 15.6257 18.4206C16.1817 18.2112 16.6856 17.8833 17.1023 17.4597C17.5266 17.0436 17.8545 16.5396 18.0632 15.9831C18.269 15.4514 18.409 14.8472 18.4507 13.9597C18.4923 13.0714 18.5007 12.7889 18.5007 10.5247C18.5007 8.26057 18.4898 7.97807 18.4507 7.08974C18.409 6.20224 18.269 5.59724 18.0632 5.06641C17.8539 4.51023 17.5261 4.00632 17.1023 3.58974C16.639 3.12724 16.1756 2.84057 15.6257 2.62891C15.094 2.42224 14.4898 2.28307 13.6023 2.24141ZM10.1667 3.85938C8.105 3.85938 7.76833 3.86521 6.80917 3.90771C6.15583 3.93854 5.7175 4.02604 5.31083 4.18437C4.94917 4.32437 4.68833 4.49187 4.41083 4.77021C4.15001 5.02221 3.94946 5.32986 3.82417 5.67021C3.66583 6.07854 3.57833 6.51604 3.54833 7.16854C3.505 8.08854 3.5 8.41021 3.5 10.526C3.5 12.5877 3.50583 12.9244 3.54833 13.8835C3.57917 14.536 3.66667 14.9752 3.82417 15.381C3.96583 15.7435 4.1325 16.0044 4.40917 16.281C4.69 16.561 4.95083 16.7285 5.30917 16.8669C5.72083 17.026 6.15917 17.1144 6.80917 17.1444C7.72917 17.1877 8.05083 17.1927 10.1667 17.1927C12.2283 17.1927 12.565 17.1869 13.5242 17.1444C14.1758 17.1135 14.615 17.026 15.0217 16.8685C15.3825 16.7277 15.645 16.5602 15.9217 16.2835C16.2025 16.0027 16.37 15.7419 16.5083 15.3835C16.6667 14.9727 16.755 14.5335 16.785 13.8835C16.8283 12.9635 16.8333 12.6419 16.8333 10.526C16.8333 8.46438 16.8275 8.12771 16.785 7.16854C16.7542 6.51687 16.6667 6.07687 16.5083 5.67021C16.3827 5.33021 16.1826 5.02268 15.9225 4.77021C15.6706 4.50925 15.3629 4.30868 15.0225 4.18354C14.6142 4.02521 14.1758 3.93771 13.5242 3.90771C12.6042 3.86437 12.2825 3.85938 10.1667 3.85938ZM14.5417 7.19271C15.117 7.19271 15.5833 6.72634 15.5833 6.15104C15.5833 5.57575 15.117 5.10938 14.5417 5.10938C13.9664 5.10938 13.5 5.57575 13.5 6.15104C13.5 6.72634 13.9664 7.19271 14.5417 7.19271ZM10.1667 6.35938C12.4679 6.35938 14.3333 8.22485 14.3333 10.526C14.3333 12.8272 12.4679 14.6927 10.1667 14.6927C7.86548 14.6927 6 12.8272 6 10.526C6 8.22485 7.86548 6.35938 10.1667 6.35938ZM10.168 8.02344C8.78726 8.02344 7.66797 9.14273 7.66797 10.5234C7.66797 11.9041 8.78726 13.0234 10.168 13.0234C11.5487 13.0234 12.668 11.9041 12.668 10.5234C12.668 9.14273 11.5487 8.02344 10.168 8.02344Z" fill="black"/>
</svg>
