<svg width="16" height="20" viewBox="0 0 16 20" fill="none" xmlns="http://www.w3.org/2000/svg">
<path fill-rule="evenodd" clip-rule="evenodd" d="M13.625 7.50093C13.6276 8.70619 13.2404 9.88 12.5213 10.8472L8 16.8759L3.47875 10.8472C2.94938 10.132 2.59724 9.30139 2.45124 8.42365C2.30524 7.54592 2.36955 6.64606 2.63889 5.79801C2.90824 4.94995 3.37492 4.17789 4.00062 3.54525C4.62632 2.9126 5.39318 2.43741 6.23821 2.15872C7.08324 1.88003 7.98232 1.80578 8.86162 1.94208C9.74092 2.07838 10.5753 2.42133 11.2963 2.94277C12.0173 3.4642 12.6044 4.14925 13.0092 4.94163C13.414 5.73401 13.625 6.61113 13.625 7.50093ZM15.5 7.50093C15.5 9.17593 14.9513 10.7209 14.025 11.9684L9.17125 18.4384L8 20.0009L6.8275 18.4384L1.975 11.9684C1.26836 11.0152 0.797969 9.90793 0.602483 8.73756C0.406997 7.5672 0.491992 6.36715 0.850487 5.23602C1.20898 4.10489 1.83074 3.07497 2.66468 2.23086C3.49863 1.38676 4.52095 0.752572 5.64765 0.380405C6.77436 0.00823922 7.97329 -0.0912834 9.14593 0.090015C10.3186 0.271313 11.4315 0.728258 12.3932 1.42331C13.3549 2.11835 14.138 3.03167 14.678 4.0882C15.2181 5.14474 15.4998 6.31435 15.5 7.50093ZM8 10.0009C8.66304 10.0009 9.29893 9.73753 9.76777 9.26869C10.2366 8.79985 10.5 8.16397 10.5 7.50093C10.5 6.83788 10.2366 6.202 9.76777 5.73316C9.29893 5.26432 8.66304 5.00093 8 5.00093C7.33696 5.00093 6.70107 5.26432 6.23223 5.73316C5.76339 6.202 5.5 6.83788 5.5 7.50093C5.5 8.16397 5.76339 8.79985 6.23223 9.26869C6.70107 9.73753 7.33696 10.0009 8 10.0009Z" fill="#211E24"/>
</svg>
