<svg width="24" height="24" viewBox="0 0 24 24" fill="none" xmlns="http://www.w3.org/2000/svg">
<path opacity="0.6" fill-rule="evenodd" clip-rule="evenodd" d="M12 1L3.783 2.826C3.32556 2.92769 3.00008 3.33339 3 3.802V13.79C3.00048 15.7957 4.00312 17.6685 5.672 18.781L12 23L18.328 18.781C19.9972 17.6683 20.9999 15.795 21 13.789V3.802C20.9999 3.33339 20.6744 2.92769 20.217 2.826L12 1ZM5 13.7898V4.60478L12 3.05078L19 4.60478V13.7908C18.9996 15.1277 18.3314 16.3761 17.219 17.1178L12 20.5978L6.781 17.1178C5.66834 16.3759 5.00002 15.1271 5 13.7898Z" fill="#211E24"/>
</svg>
