<svg width="24" height="24" viewBox="0 0 24 24" fill="none" xmlns="http://www.w3.org/2000/svg">
<path opacity="0.6" fill-rule="evenodd" clip-rule="evenodd" d="M3.783 2.826L12 1L20.217 2.826C20.6744 2.92769 20.9999 3.33339 21 3.802V13.789C20.9999 15.795 19.9972 17.6683 18.328 18.781L12 23L5.672 18.781C4.00312 17.6685 3.00048 15.7957 3 13.79V3.802C3.00008 3.33339 3.32556 2.92769 3.783 2.826ZM5 4.60478V13.7898C5.00002 15.1271 5.66834 16.3759 6.781 17.1178L12 20.5978L17.219 17.1178C18.3314 16.3761 18.9996 15.1277 19 13.7908V4.60478L12 3.05078L5 4.60478ZM9.06014 15.045L11.9991 13.5L14.9371 15.045L14.3771 11.773L16.7541 9.455L13.4691 8.977L11.9991 6L10.5301 8.977L7.24414 9.455L9.62114 11.773L9.06014 15.045Z" fill="#211E24"/>
</svg>
