<svg width="24" height="24" viewBox="0 0 24 24" fill="none" xmlns="http://www.w3.org/2000/svg">
<path opacity="0.6" fill-rule="evenodd" clip-rule="evenodd" d="M11.9998 2C7.58377 2 3.83477 4.864 2.50977 8.837H2.51077L4.40777 9.469C5.49737 6.20152 8.55539 3.99771 11.9998 3.99771C15.4441 3.99771 18.5022 6.20152 19.5918 9.469L21.4898 8.837C20.1658 4.864 16.4158 2 11.9998 2ZM10.9998 11V14H5.99977C5.44748 14 4.99977 14.4477 4.99977 15V21C4.99977 21.5523 5.44748 22 5.99977 22H17.9998C18.552 22 18.9998 21.5523 18.9998 21V15C18.9998 14.4477 18.552 14 17.9998 14H12.9998V11H10.9998ZM6.30664 10.1018C7.12461 7.65202 9.41787 6 12.0006 6C14.5834 6 16.8767 7.65202 17.6946 10.1018L15.7966 10.7348C15.2513 9.10163 13.7225 8.00028 12.0006 8.00028C10.2788 8.00028 8.74995 9.10163 8.20464 10.7348L6.30664 10.1018ZM6.99977 20V16H16.9998V20H6.99977Z" fill="#211E24"/>
</svg>
