<svg width="90" height="90" viewBox="0 0 90 90" fill="none" xmlns="http://www.w3.org/2000/svg">
<g id="noun-hand-truck-4954548 1" opacity="0.6">
<g id="Group 1000003881">
<path id="Vector" d="M17.3086 15H19.657C21.2494 15 22.539 16.2935 22.5342 17.886L22.3828 67.5163C22.378 69.1012 23.6558 70.3916 25.2407 70.4022L72.6916 70.7207" stroke="#211E24" stroke-width="2" stroke-miterlimit="10" stroke-linecap="round"/>
<path id="Vector_2" d="M26.9849 75C28.1666 75 29.1245 74.0421 29.1245 72.8604C29.1245 71.6787 28.1666 70.7207 26.9849 70.7207C25.8032 70.7207 24.8452 71.6787 24.8452 72.8604C24.8452 74.0421 25.8032 75 26.9849 75Z" stroke="#211E24" stroke-width="2" stroke-miterlimit="10" stroke-linecap="round"/>
<path id="Vector_3" d="M67.699 75C68.8807 75 69.8387 74.0421 69.8387 72.8604C69.8387 71.6787 68.8807 70.7207 67.699 70.7207C66.5173 70.7207 65.5593 71.6787 65.5593 72.8604C65.5593 74.0421 66.5173 75 67.699 75Z" stroke="#211E24" stroke-width="2" stroke-miterlimit="10" stroke-linecap="round"/>
<path id="Vector_4" d="M59.2698 45.6692H34.6606C31.2191 45.6692 28.4292 48.4591 28.4292 51.9006V64.1129C28.4292 67.5544 31.2191 70.3443 34.6606 70.3443H59.2698C62.7113 70.3443 65.5012 67.5544 65.5012 64.1129V51.9006C65.5012 48.4591 62.7113 45.6692 59.2698 45.6692Z" stroke="#211E24" stroke-width="2" stroke-miterlimit="10" stroke-linecap="round"/>
<path id="Vector_5" d="M60.4894 20.8318H33.4409C30.673 20.8318 28.4292 23.0756 28.4292 25.8435V40.4951C28.4292 43.263 30.673 45.5069 33.4409 45.5069H60.4894C63.2573 45.5069 65.5012 43.263 65.5012 40.4951V25.8435C65.5012 23.0756 63.2573 20.8318 60.4894 20.8318Z" stroke="#211E24" stroke-width="2" stroke-miterlimit="10" stroke-linecap="round"/>
<path id="Vector_6" d="M50.8207 20.751H44.2446V70.2774H50.8207V20.751Z" stroke="#211E24" stroke-width="2" stroke-miterlimit="10" stroke-linecap="round"/>
</g>
</g>
</svg>
