<svg width="21" height="21" viewBox="0 0 21 21" fill="none" xmlns="http://www.w3.org/2000/svg">
<path fill-rule="evenodd" clip-rule="evenodd" d="M11.3981 3.7728C9.87299 4.38301 8.86203 5.84765 8.83229 7.49L8.83313 7.49083C8.77928 7.48343 8.72849 7.47705 8.67906 7.47084C8.32225 7.42604 8.03654 7.39017 7.18896 7.0425C5.73896 6.4475 4.30813 5.32583 2.89729 3.67833C-0.0173495 10.6954 4.19506 13.4392 5.50105 14.2898C5.54191 14.3164 5.57993 14.3412 5.61479 14.3642C4.25646 15.3583 1.90646 15.6108 1.32812 15.6558C2.46312 16.8408 6.42313 17.7333 9.14646 17.19C13.1181 16.3975 17.0323 13.3008 17.0323 6.9325C17.6273 6.11666 17.7648 5.52333 18.044 4.15666C17.0916 4.73384 16.584 4.71649 16.0922 4.69968C16.0017 4.69659 15.9118 4.69352 15.8198 4.69416C14.6654 3.52563 12.9231 3.16259 11.3981 3.7728ZM10.4995 7.52094C10.5236 6.20353 11.5986 5.14822 12.9162 5.14844C14.5229 5.14844 15.3662 6.53427 15.3662 6.9326C15.3662 11.8126 12.752 14.7709 8.82036 15.5559C8.19869 15.6793 7.44953 15.7143 6.66036 15.6651L7.98703 14.6959C8.12111 14.5983 8.19803 14.4405 8.19236 14.2747C8.18668 14.1089 8.09915 13.9567 7.95869 13.8684L6.50286 12.9534C4.15869 11.4793 3.18536 9.56844 3.68369 6.8101C5.25703 8.12094 6.89703 8.90927 8.60869 9.1426L9.90953 9.31927C10.0508 9.33831 10.1935 9.29613 10.3017 9.20334C10.41 9.11055 10.4734 8.97597 10.4762 8.83344L10.4995 7.52094Z" fill="black"/>
</svg>
