<svg width="24" height="24" viewBox="0 0 24 24" fill="none" xmlns="http://www.w3.org/2000/svg">
<path opacity="0.6" fill-rule="evenodd" clip-rule="evenodd" d="M12 2.00001C9.59899 1.99666 7.27756 2.86067 5.463 4.43301L6.46 6.22801C8.77291 4.00781 12.1879 3.38288 15.1372 4.64013C18.0864 5.89738 20.0003 8.79394 20 12H17L20.19 17.74C21.33 16.116 22 14.136 22 12C22 6.47701 17.523 2.00001 12 2.00001ZM12 21.9998C14.401 22.0031 16.7224 21.1391 18.537 19.5668L17.54 17.7718C15.2271 19.992 11.8121 20.6169 8.86282 19.3596C5.91355 18.1024 3.99974 15.2058 4 11.9998H7L3.81 6.25976C2.67 7.88376 2 9.86376 2 11.9998C2 17.5228 6.477 21.9998 12 21.9998Z" fill="#211E24"/>
</svg>
