<svg width="21" height="21" viewBox="0 0 21 21" fill="none" xmlns="http://www.w3.org/2000/svg">
<path fill-rule="evenodd" clip-rule="evenodd" d="M18.1179 5.94495C18.4987 7.42995 18.4987 10.5299 18.4987 10.5299C18.4987 10.5299 18.4987 13.6299 18.1179 15.1149C17.9062 15.9358 17.287 16.5816 16.5029 16.7999C15.0787 17.1966 10.1654 17.1966 10.1654 17.1966C10.1654 17.1966 5.25453 17.1966 3.82786 16.7999C3.04036 16.5783 2.42203 15.9333 2.21286 15.1149C1.83203 13.6299 1.83203 10.5299 1.83203 10.5299C1.83203 10.5299 1.83203 7.42995 2.21286 5.94495C2.42453 5.12411 3.0437 4.47828 3.82786 4.25995C5.25453 3.86328 10.1654 3.86328 10.1654 3.86328C10.1654 3.86328 15.0787 3.86328 16.5029 4.25995C17.2904 4.48161 17.9087 5.12661 18.1179 5.94495ZM16.503 6.36042C16.4397 6.11208 16.2597 5.92458 16.0539 5.86708C15.6897 5.76458 13.9147 5.53125 10.1647 5.53125C6.41471 5.53125 4.64138 5.76458 4.27388 5.86708C4.07055 5.92375 3.89055 6.11125 3.82638 6.36042C3.73555 6.71375 3.49805 8.19458 3.49805 10.5312C3.49805 12.8679 3.73555 14.3479 3.82638 14.7029C3.88971 14.9504 4.06971 15.1379 4.27471 15.1946C4.64138 15.2979 6.41471 15.5312 10.1647 15.5312C13.9147 15.5312 15.6889 15.2979 16.0555 15.1954C16.2589 15.1388 16.4389 14.9513 16.503 14.7021C16.5939 14.3488 16.8314 12.8646 16.8314 10.5312C16.8314 8.19792 16.5939 6.71458 16.503 6.36042ZM8.49805 7.61328V13.4466L13.498 10.5299L8.49805 7.61328Z" fill="black"/>
</svg>
