<svg width="36" height="37" viewBox="0 0 36 37" fill="none" xmlns="http://www.w3.org/2000/svg">
<path d="M24.624 13.8811L25.488 12.7584C25.596 12.6136 25.596 12.3601 25.416 12.2514L23.508 10.7666C23.436 10.6942 23.328 10.6942 23.256 10.6942C23.148 10.6942 23.076 10.7666 23.004 10.839L22.104 11.9979C21.312 11.5995 20.484 11.3098 19.584 11.165V10.0423C20.304 9.89742 20.844 9.24553 20.844 8.48501C20.844 7.61583 20.16 6.92773 19.296 6.92773H16.776C15.912 6.92773 15.228 7.61583 15.228 8.48501C15.228 9.24553 15.768 9.89742 16.488 10.0423V11.165C12.204 11.9255 8.928 15.6919 8.928 20.2189C8.856 25.2528 12.96 29.3814 18 29.3814C23.04 29.3814 27.144 25.2528 27.144 20.1827C27.144 17.7562 26.172 15.5108 24.624 13.8811ZM23.364 11.5271L24.696 12.5774L24.12 13.3017L22.788 12.2514L23.364 11.5271ZM15.876 8.48501C15.876 8.0142 16.272 7.65205 16.704 7.65205H19.224C19.692 7.65205 20.052 8.05042 20.052 8.48501C20.052 8.95581 19.656 9.31797 19.224 9.31797H16.704C16.272 9.35418 15.876 8.95581 15.876 8.48501ZM17.136 11.0201V10.1147H18.828V11.0201H18.072C18.036 11.0201 18 11.0201 18 11.0201H17.928H17.136ZM18 28.6571C13.356 28.6571 9.576 24.8545 9.576 20.1827C9.576 15.5471 13.32 11.7806 17.892 11.7082H18.072C22.68 11.7806 26.424 15.5471 26.424 20.1827C26.424 24.8545 22.644 28.6571 18 28.6571Z" fill="#211E24"/>
<path d="M18.468 20.6171V15.6917C18.468 15.4745 18.324 15.3296 18.108 15.3296C17.892 15.3296 17.748 15.4745 17.748 15.6917V20.7981C17.748 20.9068 17.82 21.0154 17.892 21.0879L20.484 22.8987C20.556 22.9349 20.628 22.9711 20.7 22.9711C20.808 22.9711 20.916 22.9349 20.988 22.8262C21.096 22.6451 21.06 22.4279 20.916 22.3192L18.468 20.6171Z" fill="#211E24"/>
</svg>
