<svg width="36" height="37" viewBox="0 0 36 37" fill="none" xmlns="http://www.w3.org/2000/svg">
<path d="M31.932 10.0061C30.816 10.0061 29.808 10.5493 29.196 11.4185C29.16 11.346 29.088 11.2736 29.016 11.2012L22.428 8.0142C22.068 7.7969 21.672 7.72447 21.276 7.83312L15.804 8.9558C15.696 8.99202 15.552 9.02823 15.444 9.06445L14.112 8.44878C13.572 8.19528 12.96 8.23149 12.456 8.52122L6.62397 11.165C6.01197 10.4406 5.11197 9.96984 4.06797 9.96984C2.23197 9.96984 0.719971 11.4909 0.719971 13.3379V19.0962C0.719971 20.9432 2.23197 22.4642 4.06797 22.4642C5.03997 22.4642 5.90397 22.0296 6.55197 21.3778C6.22797 22.1021 6.37197 22.9713 6.94797 23.5507C7.30797 23.9129 7.81197 24.1301 8.31597 24.1301C8.56797 24.1301 8.85597 24.0577 9.10797 23.9491C9.10797 24.4561 9.32397 24.9269 9.68397 25.289C10.044 25.6512 10.548 25.8685 11.052 25.8685C11.448 25.8685 11.808 25.7599 12.132 25.5426C12.168 25.9409 12.348 26.3393 12.636 26.629C12.96 26.955 13.392 27.136 13.86 27.136C14.148 27.136 14.4 27.0636 14.652 26.9188C14.688 27.3171 14.868 27.7155 15.156 28.0052C15.48 28.3312 15.912 28.5122 16.38 28.5122C16.848 28.5122 17.28 28.3312 17.604 28.0052L18.036 27.5706C18.396 27.8966 18.864 28.0414 19.332 28.0414C19.656 28.0414 19.944 27.969 20.232 27.8241C20.772 27.5344 21.132 27.0636 21.24 26.4842C21.852 26.7377 22.608 26.7015 23.184 26.3031C23.76 25.9409 24.156 25.2891 24.192 24.601C24.84 24.7096 25.524 24.5285 25.992 24.0939C26.28 23.8404 26.46 23.4783 26.532 23.1161C26.64 22.6815 26.532 22.2469 26.316 21.8848L28.98 20.6897C29.556 21.7399 30.672 22.4642 31.932 22.4642C33.768 22.4642 35.28 20.9432 35.28 19.0962V13.3741C35.28 11.5271 33.768 10.0061 31.932 10.0061ZM4.06797 21.7761C2.62797 21.7761 1.43997 20.581 1.43997 19.1324V13.3741C1.43997 11.9255 2.62797 10.7304 4.06797 10.7304C5.50797 10.7304 6.69597 11.9255 6.69597 13.3741V19.1324C6.69597 20.581 5.50797 21.7761 4.06797 21.7761ZM7.45197 23.0799C6.98397 22.6091 6.98397 21.8123 7.45197 21.3415L8.85597 19.9291C9.10797 19.6756 9.39597 19.567 9.71997 19.567C10.044 19.567 10.332 19.6756 10.584 19.9291C11.052 20.3999 11.052 21.1605 10.584 21.6313L9.64797 22.5729L9.17997 23.0437C8.67597 23.5507 7.91997 23.5507 7.45197 23.0799ZM10.152 24.8182C9.93597 24.601 9.79197 24.275 9.79197 23.9491C9.79197 23.6231 9.89997 23.3334 10.116 23.1161L11.052 22.1745L11.52 21.7037C11.736 21.4864 12.06 21.3415 12.384 21.3415C12.708 21.3415 12.996 21.4864 13.248 21.7037C13.716 22.1745 13.716 22.9712 13.248 23.4421L11.88 24.8182C11.412 25.289 10.62 25.289 10.152 24.8182ZM13.104 26.122C12.924 25.9409 12.816 25.6874 12.816 25.3977C12.816 25.108 12.924 24.8545 13.104 24.6734L14.256 23.5145C14.436 23.3334 14.688 23.2248 14.976 23.2248C15.264 23.2248 15.516 23.3334 15.696 23.5145C15.876 23.6956 15.984 23.9491 15.984 24.2388C15.984 24.4923 15.876 24.7096 15.732 24.8907L15.12 25.5426L15.084 25.5788L14.544 26.122C14.184 26.5204 13.5 26.5204 13.104 26.122ZM17.064 27.4982C16.668 27.8966 16.02 27.8966 15.624 27.4982C15.444 27.3171 15.336 27.0636 15.336 26.7739C15.336 26.5204 15.444 26.3031 15.588 26.122L16.236 25.4701L16.272 25.4339L16.812 24.8907C16.992 24.7096 17.244 24.601 17.532 24.601C17.82 24.601 18.072 24.7096 18.252 24.8907C18.648 25.289 18.648 25.9409 18.252 26.3393L17.064 27.4982ZM25.812 23.0075C25.74 23.261 25.632 23.4783 25.452 23.6231C25.056 24.0215 24.444 24.0939 23.904 23.8404C23.796 23.768 23.652 23.8042 23.508 23.8766C23.4 23.9491 23.364 24.0939 23.364 24.2388C23.472 24.8182 23.22 25.4339 22.716 25.7599C22.212 26.0858 21.528 26.0496 21.06 25.6512C20.952 25.5426 20.808 25.5426 20.664 25.615C20.52 25.6874 20.448 25.8323 20.484 25.9771C20.52 26.5204 20.268 26.9912 19.8 27.2447C19.368 27.462 18.828 27.4258 18.432 27.0998L18.72 26.8463C19.404 26.1582 19.404 25.0718 18.72 24.3837C18.396 24.0577 17.964 23.8766 17.496 23.8766C17.208 23.8766 16.956 23.9491 16.704 24.0939C16.668 23.6956 16.488 23.2972 16.2 23.0075C15.876 22.6815 15.444 22.5004 14.976 22.5004C14.76 22.5004 14.544 22.5367 14.364 22.6091C14.4 22.0659 14.22 21.5226 13.824 21.1243C13.464 20.7621 12.96 20.5448 12.456 20.5448C12.168 20.5448 11.916 20.6172 11.664 20.7259C11.664 20.2551 11.484 19.7481 11.088 19.3859C10.332 18.6254 9.10797 18.6254 8.35197 19.3859L7.01997 20.7259C7.27197 20.2551 7.41597 19.7118 7.41597 19.1324V13.3741C7.41597 12.7947 7.27197 12.2514 7.01997 11.7806L12.744 9.1731C12.744 9.1731 12.78 9.1731 12.78 9.13688C13.104 8.9558 13.464 8.91959 13.788 9.06445L14.832 9.53525C14.796 9.57147 14.76 9.60768 14.724 9.6439L11.52 15.1487C11.124 15.873 11.268 16.7422 11.916 17.2492L11.952 17.2854C12.312 17.5389 12.708 17.6476 13.176 17.6476C14.004 17.6476 14.94 17.2492 15.732 16.4887C15.768 16.4524 15.84 16.38 15.876 16.3438L16.992 14.9676C17.244 14.6417 17.676 14.5692 18.072 14.7503C18.432 14.9314 18.792 15.0762 19.188 15.2211L25.632 22.1383C25.812 22.3918 25.884 22.7177 25.812 23.0075ZM25.812 21.3415L20.484 15.6195C20.952 15.7281 21.456 15.8006 21.924 15.8368C22.104 15.8368 22.284 15.6919 22.32 15.5108C22.356 15.3298 22.176 15.1487 21.996 15.1125C21.132 15.04 20.304 14.859 19.476 14.6054C19.116 14.4606 18.72 14.3157 18.36 14.1346C17.676 13.8087 16.884 13.9898 16.416 14.5692L15.3 15.9454C15.264 15.9816 15.264 16.0178 15.228 16.0178C14.184 17.0319 12.96 17.1405 12.384 16.7059C12.024 16.4524 11.952 15.9454 12.168 15.547L15.372 10.0423C15.516 9.82498 15.696 9.68012 15.948 9.60768L21.42 8.485C21.636 8.44878 21.852 8.485 22.068 8.59365H22.104L28.728 11.8168C28.8 11.8531 28.872 11.8531 28.944 11.8531C28.728 12.2876 28.584 12.7947 28.584 13.3379V19.0962C28.584 19.4221 28.62 19.7481 28.728 20.0378L25.812 21.3415ZM34.56 19.1324C34.56 20.581 33.372 21.7761 31.932 21.7761C30.492 21.7761 29.304 20.581 29.304 19.1324V13.3741C29.304 11.9255 30.492 10.7304 31.932 10.7304C33.372 10.7304 34.56 11.9255 34.56 13.3741V19.1324Z" fill="#211E24"/>
</svg>
