<svg width="36" height="36" viewBox="0 0 36 36" fill="none" xmlns="http://www.w3.org/2000/svg">
<path d="M20.448 21.4921C20.448 18.5401 18.036 16.1641 15.12 16.1641C12.204 16.1641 9.79199 18.5761 9.79199 21.4921C9.79199 24.4081 12.168 26.8201 15.12 26.8201C18.072 26.8201 20.448 24.4081 20.448 21.4921ZM15.12 26.1361C12.564 26.1361 10.476 24.0481 10.476 21.4921C10.476 18.9361 12.564 16.8481 15.12 16.8481C17.676 16.8481 19.764 18.9361 19.764 21.4921C19.764 24.0481 17.676 26.1361 15.12 26.1361Z" fill="#211E24"/>
<path d="M16.7759 20.0159L14.5079 22.1759L13.4279 21.0959C13.2839 20.9519 13.0679 20.9519 12.9239 21.0959C12.7799 21.2399 12.7799 21.4559 12.9239 21.5999L14.2199 22.9319C14.2919 23.0039 14.3639 23.0399 14.4719 23.0399C14.5439 23.0399 14.6519 23.0039 14.7239 22.9319L17.2439 20.5559C17.3879 20.4119 17.3879 20.1959 17.2439 20.0519C17.1359 19.9079 16.9199 19.9079 16.7759 20.0159Z" fill="#211E24"/>
<path d="M28.296 14.724C28.8 14.148 28.728 13.32 28.188 12.816L22.212 7.52399C21.636 7.01999 20.808 7.09199 20.304 7.63199L18.792 9.35999C18.612 9.57599 18.324 9.64799 18.072 9.53999C17.424 9.32399 16.74 9.17999 16.092 9.10799C12.744 8.85599 10.368 10.836 10.116 11.052C10.008 11.16 7.34399 13.5 7.34399 17.136C7.34399 17.388 7.34399 17.64 7.37999 17.892C7.41599 18.324 7.70399 18.684 8.13599 18.828C8.56799 18.972 8.99999 18.864 9.28799 18.54L11.808 15.732C12.528 14.94 13.608 14.58 14.652 14.76L19.584 15.66C19.8 15.696 20.016 15.876 20.088 16.092L21.852 21.132C22.176 22.104 21.96 23.148 21.312 23.904L18.612 27C18.324 27.324 18.252 27.756 18.432 28.152C18.612 28.548 18.972 28.8 19.404 28.8C19.476 28.8 19.548 28.8 19.62 28.8C19.944 28.8 20.268 28.764 20.592 28.728C23.4 28.332 25.128 26.352 25.92 25.2C26.388 24.552 27.792 22.176 27.324 19.152C27.216 18.468 27 17.82 26.712 17.172C26.604 16.956 26.64 16.668 26.82 16.452L28.296 14.724ZM26.028 17.46C26.28 18.036 26.46 18.648 26.568 19.26C27 22.032 25.704 24.228 25.272 24.804C24.552 25.848 22.968 27.684 20.448 28.008C20.088 28.044 19.764 28.08 19.404 28.08C19.26 28.08 19.116 27.972 19.044 27.828C18.972 27.684 19.008 27.54 19.116 27.396L21.78 24.336C22.608 23.4 22.86 22.068 22.464 20.88L20.7 15.84C20.556 15.372 20.16 15.048 19.656 14.94L14.724 14.04C14.544 14.04 14.328 14.04 14.112 14.04C13.068 14.04 12.024 14.472 11.304 15.3L8.78399 18.108C8.63999 18.288 8.42399 18.252 8.38799 18.216C8.31599 18.18 8.13599 18.108 8.13599 17.892C8.09999 17.676 8.09999 17.424 8.09999 17.208C8.09999 13.86 10.512 11.736 10.62 11.628C10.872 11.412 13.032 9.61199 16.092 9.86399C16.704 9.89999 17.316 10.044 17.892 10.26C18.432 10.44 18.972 10.296 19.368 9.86399L20.88 8.17199C21.132 7.88399 21.528 7.88399 21.816 8.09999L27.72 13.356C28.008 13.608 28.008 14.004 27.792 14.292L26.244 16.02C25.884 16.416 25.812 16.956 26.028 17.46Z" fill="#211E24"/>
</svg>
