<svg width="36" height="36" viewBox="0 0 36 36" fill="none" xmlns="http://www.w3.org/2000/svg">
<path d="M25.5239 20.7362C24.2999 20.7362 23.2919 21.7442 23.2919 22.9682V26.5682C23.2919 26.6762 23.2919 26.8202 23.3279 26.9282C22.3199 26.9282 21.1679 26.9282 20.0159 26.8922C18.7919 26.8922 17.5679 26.8922 16.5599 26.8562C16.0919 26.8562 15.6239 26.7482 15.2279 26.4962L14.1839 25.9202L6.8759 21.4202C6.5159 21.2042 6.4439 20.7722 6.5519 20.5202C6.6239 20.3762 6.7679 20.3042 6.9119 20.2322C7.1279 20.1602 7.3439 20.1962 7.5599 20.3402L12.9599 23.1842C12.9959 23.5082 13.1399 23.7962 13.3919 24.0122C13.6439 24.2282 13.9679 24.3722 14.2919 24.3722C14.3279 24.3722 14.3639 24.3722 14.3999 24.3722H19.3319C19.5119 24.3722 19.6919 24.2282 19.6919 24.0122C19.6919 23.7962 19.5479 23.6522 19.3319 23.6522H14.3639C14.1839 23.6522 14.0039 23.6162 13.8599 23.4722C13.7159 23.3642 13.6439 23.1842 13.6439 23.0402C13.6439 22.7522 13.8599 22.4642 14.1839 22.3922C15.0119 22.3922 15.8399 22.2842 16.6319 22.0682C17.3879 21.8882 17.9639 21.6722 18.4319 21.4922C19.0439 21.2402 19.4759 21.0962 20.0159 21.1322C20.7359 21.2042 21.4559 21.6722 22.1399 22.4642C22.2479 22.6082 22.4999 22.6442 22.6439 22.5002C22.7879 22.3922 22.8239 22.1402 22.6799 21.9962C21.8519 21.0602 20.9879 20.5202 20.0879 20.4122C19.3679 20.3402 18.8279 20.5562 18.1799 20.8082C17.7119 20.9882 17.2079 21.2042 16.4879 21.3482C15.7319 21.5282 14.9399 21.6362 14.1839 21.6362H14.1479C13.7159 21.7082 13.3559 21.9962 13.1399 22.3562L8.3159 19.8362L7.9559 19.6202C7.5959 19.4042 7.1639 19.3322 6.7679 19.4402C6.4079 19.5482 6.1199 19.7642 5.9759 20.0522C5.6519 20.6282 5.9039 21.4202 6.5159 21.8522L13.8239 26.3882L14.9039 26.9642C15.4079 27.2522 15.9839 27.3962 16.5599 27.3962C17.6039 27.3962 18.7919 27.4322 20.0159 27.4322C21.2399 27.4322 22.4639 27.4322 23.4719 27.4682C23.5079 27.4682 23.5439 27.4682 23.5439 27.4682C23.9039 28.1882 24.6599 28.6562 25.5239 28.6562C26.7479 28.6562 27.7559 27.6482 27.7559 26.4242V22.8242C27.7559 21.7442 26.7479 20.7362 25.5239 20.7362ZM27.0359 26.5682C27.0359 27.4322 26.3519 28.1162 25.4879 28.1162C24.6239 28.1162 23.9399 27.4322 23.9399 26.5682V22.9682C23.9399 22.1042 24.6239 21.4202 25.4879 21.4202C26.3519 21.4202 27.0359 22.1042 27.0359 22.9682V26.5682Z" fill="#211E24"/>
<path d="M29.8078 16.9202H24.0838C24.1198 16.7762 24.1198 16.6322 24.1198 16.4882V15.9482H28.5118C28.6918 15.9482 28.8718 15.8042 28.8718 15.5882C28.8718 15.3722 28.7278 15.2282 28.5118 15.2282H24.1558V14.0402H26.9998C27.1798 14.0402 27.3598 13.8962 27.3598 13.6802C27.3598 13.4642 27.2158 13.3202 26.9998 13.3202H24.1558V9.2522C24.1558 8.1362 23.2558 7.2362 22.1398 7.2362H17.8558V7.2002H14.3278V7.2362H9.57581C8.45981 7.2362 7.55981 8.1362 7.55981 9.2522V16.4882C7.55981 17.6042 8.45981 18.5042 9.57581 18.5042H14.3278H17.8558H22.1398C22.8238 18.5042 23.4358 18.1442 23.7958 17.6402C23.8318 17.6402 23.8318 17.6402 23.8678 17.6402H29.8078C29.9878 17.6402 30.1678 17.4962 30.1678 17.2802C30.1678 17.1002 30.0238 16.9202 29.8078 16.9202ZM15.0478 17.7842V7.9202H17.1718V17.7842H15.0478ZM9.57581 17.7842C8.85581 17.7842 8.27981 17.2082 8.27981 16.4882V9.2522C8.27981 8.5322 8.85581 7.9562 9.57581 7.9562H14.3278V17.8202H9.57581V17.7842ZM23.4358 16.4882C23.4358 17.2082 22.8598 17.7842 22.1398 17.7842H17.8558V7.9202H22.1398C22.8598 7.9202 23.4358 8.4962 23.4358 9.2162V16.4882Z" fill="#211E24"/>
</svg>
