<svg width="36" height="36" viewBox="0 0 36 36" fill="none" xmlns="http://www.w3.org/2000/svg">
<path d="M14.292 17.9637C14.292 20.2317 16.164 22.1037 18.432 22.1037C20.7 22.1037 22.572 20.2317 22.572 17.9637C22.572 15.6597 20.7 13.8237 18.432 13.8237C16.128 13.8237 14.292 15.6957 14.292 17.9637ZM21.888 17.9637C21.888 19.8717 20.34 21.4197 18.432 21.4197C16.524 21.4197 14.976 19.8717 14.976 17.9637C14.976 16.0557 16.524 14.5077 18.432 14.5077C20.34 14.5077 21.888 16.0917 21.888 17.9637Z" fill="#211E24"/>
<path d="M18.2161 16.0922V16.5962C17.7481 16.6682 17.4601 16.9922 17.4601 17.4242C17.4601 17.8562 17.7841 18.1082 18.2881 18.2882C18.6481 18.4322 18.8641 18.6122 18.8641 18.9002C18.8641 19.1882 18.6121 19.4042 18.2521 19.4042C17.9641 19.4042 17.7121 19.2962 17.5321 19.1882L17.4241 19.5122C17.6041 19.6562 17.8921 19.7282 18.1801 19.7282V20.2322H18.5041V19.6922C19.0081 19.6202 19.2961 19.2242 19.2961 18.8282C19.2961 18.3962 19.0441 18.1082 18.5041 17.8922C18.0721 17.7122 17.8921 17.5682 17.8921 17.3162C17.8921 17.1002 18.0361 16.8842 18.4321 16.8842C18.7561 16.8842 18.9721 16.9922 19.0801 17.0642L19.2241 16.7402C19.0801 16.6682 18.8641 16.5602 18.5761 16.5602V16.0562H18.2161V16.0922Z" fill="#211E24"/>
<path d="M12.492 11.304V9.07197L17.1 9.10797C17.388 9.10797 17.676 9.17997 17.964 9.32397L18.684 9.71997L23.652 12.78C23.832 12.888 23.904 13.104 23.832 13.248C23.796 13.32 23.724 13.356 23.652 13.392C23.544 13.428 23.4 13.392 23.292 13.32L19.656 11.412C19.62 11.196 19.512 10.98 19.332 10.836C19.116 10.656 18.828 10.548 18.576 10.584H15.192C15.012 10.584 14.832 10.728 14.832 10.944C14.832 11.16 14.976 11.304 15.192 11.304H18.576C18.684 11.304 18.756 11.34 18.828 11.412C18.9 11.484 18.936 11.556 18.936 11.628C18.936 11.772 18.828 11.916 18.684 11.952C18.108 11.952 17.568 12.024 16.992 12.168C16.452 12.312 16.056 12.456 15.768 12.564C15.372 12.708 15.084 12.816 14.724 12.78C14.256 12.744 13.788 12.42 13.356 11.916C13.248 11.772 12.996 11.736 12.852 11.88C12.708 11.988 12.672 12.24 12.816 12.384C13.392 13.068 14.004 13.428 14.652 13.5C14.724 13.5 14.796 13.5 14.868 13.5C15.3 13.5 15.624 13.356 16.02 13.212C16.344 13.104 16.668 12.96 17.172 12.852C17.676 12.744 18.216 12.672 18.72 12.672H18.756C19.044 12.636 19.296 12.456 19.44 12.204L22.644 13.86L22.896 14.004C23.076 14.112 23.292 14.184 23.508 14.184C23.616 14.184 23.724 14.184 23.796 14.148C24.084 14.076 24.3 13.896 24.408 13.68C24.66 13.212 24.48 12.636 23.976 12.312L19.008 9.21597L18.288 8.81997C17.928 8.60397 17.532 8.49597 17.1 8.49597L12.42 8.45997C12.204 7.77597 11.592 7.27197 10.872 7.27197C9.97195 7.27197 9.25195 7.99197 9.25195 8.89197V11.34C9.25195 12.24 9.97195 12.96 10.872 12.96C11.736 12.924 12.492 12.204 12.492 11.304ZM11.772 11.304C11.772 11.808 11.34 12.24 10.836 12.24C10.332 12.24 9.89995 11.808 9.89995 11.304V8.85597C9.89995 8.35197 10.332 7.91997 10.836 7.91997C11.34 7.91997 11.772 8.35197 11.772 8.85597V11.304Z" fill="#211E24"/>
<path d="M25.1639 23.0761C24.2639 23.0761 23.5439 23.7961 23.5439 24.6961V27.1441C23.5439 27.1801 23.5439 27.2161 23.5439 27.2881L19.0439 27.2521C18.7559 27.2521 18.4679 27.1801 18.1799 27.0361L17.4599 26.6401L12.4919 23.5801C12.3119 23.4721 12.2399 23.2561 12.3119 23.1121C12.3479 23.0401 12.4199 23.0041 12.4919 22.9681C12.5999 22.9321 12.7439 22.9681 12.8519 23.0401L16.4879 24.9481C16.5239 25.1641 16.6319 25.3801 16.8119 25.5241C16.9919 25.7041 17.2439 25.8121 17.4959 25.8121C17.5319 25.8121 17.5319 25.8121 17.5679 25.8121H20.9519C21.1319 25.8121 21.3119 25.6681 21.3119 25.4521C21.3119 25.2361 21.1679 25.0921 20.9519 25.0921H17.5679C17.4599 25.0921 17.3879 25.0561 17.3159 24.9841C17.2439 24.9121 17.2079 24.8401 17.2079 24.7681C17.2079 24.6241 17.3159 24.4801 17.4599 24.4441C18.0359 24.4441 18.5759 24.3721 19.1519 24.2281C19.6919 24.0841 20.0879 23.9401 20.3759 23.8321C20.7719 23.6881 21.0599 23.5801 21.4199 23.6161C21.8879 23.6521 22.3559 23.9761 22.7879 24.4801C22.8959 24.6241 23.1479 24.6601 23.2919 24.5161C23.4359 24.4081 23.4719 24.1561 23.3279 24.0121C22.7519 23.3281 22.1399 22.9681 21.4919 22.8961C20.9879 22.8241 20.5919 23.0041 20.1239 23.1841C19.7999 23.2921 19.4759 23.4361 18.9719 23.5441C18.4679 23.6521 17.9279 23.7241 17.4239 23.7241H17.3879C17.0999 23.7601 16.8479 23.9401 16.7039 24.1921L13.4999 22.5361L13.2479 22.3921C12.9959 22.2121 12.6359 22.1761 12.3479 22.2481C12.0599 22.3201 11.8439 22.5001 11.7359 22.7161C11.4839 23.1841 11.6639 23.7601 12.1679 24.0841L17.1359 27.1801L17.8559 27.5761C18.2159 27.7921 18.6119 27.8641 19.0439 27.9001L23.7599 28.0081C24.0479 28.4761 24.5519 28.8001 25.1639 28.8001C26.0639 28.8001 26.7839 28.0801 26.7839 27.1801V24.7321C26.7839 23.7961 26.0639 23.0761 25.1639 23.0761ZM26.0999 27.1801C26.0999 27.6841 25.6679 28.1161 25.1639 28.1161C24.6599 28.1161 24.2279 27.6841 24.2279 27.1801V24.7321C24.2279 24.2281 24.6599 23.7961 25.1639 23.7961C25.6679 23.7961 26.0999 24.2281 26.0999 24.7321V27.1801Z" fill="#211E24"/>
</svg>
