<svg width="83" height="83" viewBox="0 0 83 83" fill="none" xmlns="http://www.w3.org/2000/svg">
<g filter="url(#filter0_d_1_72014)">
<circle cx="41.5" cy="37.5" r="29.5" fill="#9B9E51"/>
</g>
<path d="M56.637 34.8579C56.3289 34.1135 55.6684 33.935 55.2215 33.8923V29.3557C55.2215 27.6731 53.8531 26.3048 52.1706 26.3048H43.0181V24.1845C43.4833 23.7665 43.7808 23.1655 43.7808 22.4913C43.7808 21.8844 43.5397 21.3024 43.1106 20.8733C42.6815 20.4442 42.0995 20.2031 41.4926 20.2031C40.8858 20.2031 40.3038 20.4442 39.8747 20.8733C39.4456 21.3024 39.2045 21.8844 39.2045 22.4913C39.2045 23.1655 39.502 23.7665 39.9672 24.1845V26.3048H30.8147C29.1321 26.3048 27.7638 27.6731 27.7638 29.3557V33.9274L27.6387 33.9365C27.2543 33.9643 26.8946 34.1365 26.632 34.4187C26.3694 34.7008 26.2233 35.0719 26.2231 35.4574V38.5082C26.2231 38.9128 26.3839 39.3008 26.6699 39.5868C26.956 39.8729 27.344 40.0336 27.7486 40.0336H27.7638V47.6608C27.7638 49.3433 29.1321 50.7116 30.8147 50.7116H52.1706C53.8531 50.7116 55.2215 49.3433 55.2215 47.6608V40.0336C55.626 40.0336 56.014 39.8729 56.3001 39.5868C56.5862 39.3008 56.7469 38.9128 56.7469 38.5082V35.5519C56.7644 35.3152 56.7268 35.0776 56.637 34.8579ZM30.8147 47.6608V29.3557H52.1706L52.1721 35.4513L52.1706 35.4574V38.5082L52.1721 38.5158L52.1737 47.6608H30.8147Z" fill="white"/>
<path d="M36.1536 38.5079C37.4173 38.5079 38.4417 37.142 38.4417 35.4571C38.4417 33.7722 37.4173 32.4062 36.1536 32.4062C34.8899 32.4062 33.8655 33.7722 33.8655 35.4571C33.8655 37.142 34.8899 38.5079 36.1536 38.5079Z" fill="white"/>
<path d="M46.8316 38.5079C48.0953 38.5079 49.1197 37.142 49.1197 35.4571C49.1197 33.7722 48.0953 32.4062 46.8316 32.4062C45.5679 32.4062 44.5435 33.7722 44.5435 35.4571C44.5435 37.142 45.5679 38.5079 46.8316 38.5079Z" fill="white"/>
<path d="M35.3909 41.5596H47.5943V44.6104H35.3909V41.5596Z" fill="white"/>
<defs>
<filter id="filter0_d_1_72014" x="0" y="0" width="83" height="83" filterUnits="userSpaceOnUse" color-interpolation-filters="sRGB">
<feFlood flood-opacity="0" result="BackgroundImageFix"/>
<feColorMatrix in="SourceAlpha" type="matrix" values="0 0 0 0 0 0 0 0 0 0 0 0 0 0 0 0 0 0 127 0" result="hardAlpha"/>
<feOffset dy="4"/>
<feGaussianBlur stdDeviation="6"/>
<feComposite in2="hardAlpha" operator="out"/>
<feColorMatrix type="matrix" values="0 0 0 0 0 0 0 0 0 0 0 0 0 0 0 0 0 0 0.1 0"/>
<feBlend mode="normal" in2="BackgroundImageFix" result="effect1_dropShadow_1_72014"/>
<feBlend mode="normal" in="SourceGraphic" in2="effect1_dropShadow_1_72014" result="shape"/>
</filter>
</defs>
</svg>
