<svg width="36" height="37" viewBox="0 0 36 37" fill="none" xmlns="http://www.w3.org/2000/svg">
<path d="M18 6.92871C11.844 6.92871 6.84003 11.9627 6.84003 18.1556C6.84003 24.3484 11.844 29.3824 18 29.3824C24.156 29.3824 29.16 24.3484 29.16 18.1556C29.16 11.9627 24.156 6.92871 18 6.92871ZM18 28.6581C16.092 28.6581 14.292 28.1511 12.744 27.2095C12.744 27.1732 12.744 27.1732 12.744 27.137C12.744 24.2398 15.084 21.8495 18 21.8495C20.916 21.8495 23.256 24.2036 23.256 27.137C23.256 27.1732 23.256 27.1732 23.256 27.2095C21.708 28.1511 19.908 28.6581 18 28.6581ZM14.94 17.9383C14.94 16.2361 16.308 14.8599 18 14.8599C19.692 14.8599 21.06 16.2361 21.06 17.9383C21.06 19.6404 19.692 21.0166 18 21.0166C16.308 21.0166 14.94 19.6404 14.94 17.9383ZM23.94 26.7749C23.76 24.2036 21.996 22.0668 19.584 21.3787C20.88 20.7631 21.78 19.4593 21.78 17.902C21.78 15.8015 20.088 14.0994 18 14.0994C15.912 14.0994 14.22 15.8015 14.22 17.902C14.22 19.4231 15.12 20.7631 16.416 21.3787C14.004 22.0306 12.204 24.2036 12.06 26.7749C9.32403 24.8917 7.56003 21.7409 7.56003 18.1556C7.56003 12.3611 12.24 7.65302 18 7.65302C23.76 7.65302 28.44 12.3611 28.44 18.1556C28.44 21.7409 26.676 24.8917 23.94 26.7749Z" fill="#211E24"/>
<path d="M18.648 18.7352C18.612 18.7715 18.36 19.025 17.964 19.025C17.604 19.025 17.388 18.8077 17.316 18.7352C17.172 18.5904 16.956 18.5904 16.812 18.699C16.668 18.8439 16.668 19.0612 16.776 19.206C16.92 19.3509 17.316 19.7131 17.928 19.7493H17.964C18.612 19.7493 19.044 19.3509 19.152 19.206C19.296 19.0612 19.26 18.8439 19.116 18.699C19.008 18.5904 18.792 18.5904 18.648 18.7352Z" fill="#211E24"/>
</svg>
