<svg width="36" height="36" viewBox="0 0 36 36" fill="none" xmlns="http://www.w3.org/2000/svg">
<path d="M25.956 22.1758L19.404 12.8518C19.008 12.2758 18.36 11.9518 17.64 11.9878L15.12 12.0598C14.796 11.2678 14.328 10.4398 13.932 9.86384C12.636 8.02784 10.872 6.33584 9.97201 6.98384C9.03601 7.63184 10.62 10.6558 11.34 11.6998C11.628 12.1318 11.952 12.5278 12.276 12.8878C12.168 13.0318 12.06 13.2118 11.988 13.3918L10.512 17.0278C10.26 17.6758 10.332 18.4318 10.728 19.0078L17.244 28.3318C17.568 28.7998 18.036 29.0878 18.576 29.1958C18.684 29.2318 18.828 29.2318 18.936 29.2318C19.368 29.2318 19.764 29.0878 20.124 28.8718L25.452 25.1278C26.388 24.4078 26.604 23.1118 25.956 22.1758ZM10.404 7.55984C10.62 7.48784 11.844 8.13584 13.356 10.2598C13.788 10.8718 14.112 11.4838 14.364 12.0598H13.824C13.464 12.0598 13.104 12.1678 12.816 12.3838C12.492 12.0238 12.204 11.6638 11.952 11.2678C10.836 9.64784 10.296 7.91984 10.404 7.55984ZM25.596 23.5798C25.524 23.9398 25.344 24.2278 25.056 24.4438L19.692 28.1878C19.404 28.4038 19.044 28.4758 18.684 28.4038C18.324 28.3318 18.036 28.1518 17.82 27.8638L11.304 18.5398C11.052 18.1798 10.98 17.6758 11.16 17.2798L12.636 13.6438C12.852 13.1398 13.32 12.8158 13.824 12.8158L14.616 12.7798C14.832 13.3558 14.904 13.8238 14.832 13.9678C14.76 13.9678 14.616 13.9318 14.256 13.7158C14.076 13.6078 13.86 13.6798 13.752 13.8238C13.644 14.0038 13.716 14.2198 13.86 14.3278C14.112 14.4718 14.472 14.6878 14.796 14.6878C14.94 14.6878 15.084 14.6518 15.228 14.5438C15.624 14.2558 15.588 13.5358 15.336 12.7438L17.604 12.6718H17.64C18.072 12.6718 18.504 12.8878 18.756 13.2478L25.308 22.5718C25.56 22.8958 25.632 23.2558 25.596 23.5798Z" fill="#211E24"/>
<path d="M20.736 20.808C20.268 20.124 19.584 20.016 18.576 20.232C17.712 20.412 17.316 20.412 17.028 20.016C16.812 19.728 16.776 19.224 17.388 18.792C17.892 18.468 18.288 18.396 18.54 18.396L18.36 17.748C18.036 17.784 17.64 17.856 17.172 18.18L16.668 17.46L16.2 17.784L16.74 18.54C16.128 19.152 16.02 19.944 16.452 20.556C16.92 21.204 17.64 21.24 18.612 20.988C19.332 20.808 19.8 20.88 20.088 21.276C20.376 21.708 20.232 22.284 19.692 22.644C19.26 22.932 18.756 23.076 18.36 23.076L18.54 23.724C18.936 23.724 19.476 23.544 19.944 23.256L20.484 24.012L20.952 23.688L20.412 22.896C21.132 22.248 21.168 21.384 20.736 20.808Z" fill="#211E24"/>
</svg>
