<svg width="144" height="26" viewBox="0 0 144 26" fill="none" xmlns="http://www.w3.org/2000/svg">
<path opacity="0.6" d="M22.288 20.112C21.2533 20.112 20.3093 19.872 19.456 19.392C18.6027 18.9013 17.9253 18.224 17.424 17.36C16.9333 16.4853 16.688 15.504 16.688 14.416C16.688 13.328 16.9333 12.352 17.424 11.488C17.9253 10.6133 18.6027 9.936 19.456 9.456C20.3093 8.96533 21.2533 8.72 22.288 8.72C23.3333 8.72 24.2827 8.96533 25.136 9.456C25.9893 9.936 26.6613 10.608 27.152 11.472C27.6427 12.336 27.888 13.3173 27.888 14.416C27.888 15.5147 27.6427 16.496 27.152 17.36C26.6613 18.224 25.9893 18.9013 25.136 19.392C24.2827 19.872 23.3333 20.112 22.288 20.112ZM22.288 18.848C23.0667 18.848 23.7653 18.6667 24.384 18.304C25.0133 17.9413 25.504 17.424 25.856 16.752C26.2187 16.08 26.4 15.3013 26.4 14.416C26.4 13.52 26.2187 12.7413 25.856 12.08C25.504 11.408 25.0187 10.8907 24.4 10.528C23.7813 10.1653 23.0773 9.984 22.288 9.984C21.4987 9.984 20.7947 10.1653 20.176 10.528C19.5573 10.8907 19.0667 11.408 18.704 12.08C18.352 12.7413 18.176 13.52 18.176 14.416C18.176 15.3013 18.352 16.08 18.704 16.752C19.0667 17.424 19.5573 17.9413 20.176 18.304C20.8053 18.6667 21.5093 18.848 22.288 18.848ZM36.3221 20L33.6661 15.44H31.9061V20H30.4501V8.848H34.0501C34.8928 8.848 35.6021 8.992 36.1781 9.28C36.7648 9.568 37.2021 9.95733 37.4901 10.448C37.7781 10.9387 37.9221 11.4987 37.9221 12.128C37.9221 12.896 37.6981 13.5733 37.2501 14.16C36.8128 14.7467 36.1515 15.136 35.2661 15.328L38.0661 20H36.3221ZM31.9061 14.272H34.0501C34.8395 14.272 35.4315 14.08 35.8261 13.696C36.2208 13.3013 36.4181 12.7787 36.4181 12.128C36.4181 11.4667 36.2208 10.9547 35.8261 10.592C35.4421 10.2293 34.8501 10.048 34.0501 10.048H31.9061V14.272ZM42.2805 8.848V20H40.8245V8.848H42.2805ZM53.85 12.08C53.5407 11.4293 53.0927 10.928 52.506 10.576C51.9193 10.2133 51.2367 10.032 50.458 10.032C49.6793 10.032 48.9753 10.2133 48.346 10.576C47.7273 10.928 47.2367 11.44 46.874 12.112C46.522 12.7733 46.346 13.5413 46.346 14.416C46.346 15.2907 46.522 16.0587 46.874 16.72C47.2367 17.3813 47.7273 17.8933 48.346 18.256C48.9753 18.608 49.6793 18.784 50.458 18.784C51.546 18.784 52.442 18.4587 53.146 17.808C53.85 17.1573 54.2607 16.2773 54.378 15.168H49.93V13.984H55.93V15.104C55.8447 16.0213 55.5567 16.864 55.066 17.632C54.5753 18.3893 53.93 18.992 53.13 19.44C52.33 19.8773 51.4393 20.096 50.458 20.096C49.4233 20.096 48.4793 19.856 47.626 19.376C46.7727 18.8853 46.0953 18.208 45.594 17.344C45.1033 16.48 44.858 15.504 44.858 14.416C44.858 13.328 45.1033 12.352 45.594 11.488C46.0953 10.6133 46.7727 9.936 47.626 9.456C48.4793 8.96533 49.4233 8.72 50.458 8.72C51.642 8.72 52.6873 9.01333 53.594 9.6C54.5113 10.1867 55.178 11.0133 55.594 12.08H53.85ZM65.0871 17.52H60.2231L59.3271 20H57.7911L61.8231 8.912H63.5031L67.5191 20H65.9831L65.0871 17.52ZM64.6711 16.336L62.6551 10.704L60.6391 16.336H64.6711ZM80.694 20L78.038 15.44H76.278V20H74.822V8.848H78.422C79.2647 8.848 79.974 8.992 80.55 9.28C81.1367 9.568 81.574 9.95733 81.862 10.448C82.15 10.9387 82.294 11.4987 82.294 12.128C82.294 12.896 82.07 13.5733 81.622 14.16C81.1847 14.7467 80.5233 15.136 79.638 15.328L82.438 20H80.694ZM76.278 14.272H78.422C79.2113 14.272 79.8033 14.08 80.198 13.696C80.5927 13.3013 80.79 12.7787 80.79 12.128C80.79 11.4667 80.5927 10.9547 80.198 10.592C79.814 10.2293 79.222 10.048 78.422 10.048H76.278V14.272ZM86.6524 10.032V13.76H90.7164V14.96H86.6524V18.8H91.1964V20H85.1964V8.832H91.1964V10.032H86.6524ZM103.256 8.848L99.0475 20H97.3675L93.1595 8.848H94.7115L98.2155 18.464L101.72 8.848H103.256ZM106.948 8.848V20H105.492V8.848H106.948ZM111.526 10.032V13.76H115.59V14.96H111.526V18.8H116.07V20H110.07V8.832H116.07V10.032H111.526ZM132.929 8.848L129.697 20H128.065L125.473 11.024L122.785 20L121.169 20.016L118.049 8.848H119.601L122.033 18.304L124.721 8.848H126.353L128.913 18.272L131.361 8.848H132.929ZM138.698 20.112C137.962 20.112 137.301 19.984 136.714 19.728C136.138 19.4613 135.685 19.0987 135.354 18.64C135.023 18.1707 134.853 17.632 134.842 17.024H136.394C136.447 17.5467 136.661 17.9893 137.034 18.352C137.418 18.704 137.973 18.88 138.698 18.88C139.391 18.88 139.935 18.7093 140.33 18.368C140.735 18.016 140.938 17.568 140.938 17.024C140.938 16.5973 140.821 16.2507 140.586 15.984C140.351 15.7173 140.058 15.5147 139.706 15.376C139.354 15.2373 138.879 15.088 138.282 14.928C137.546 14.736 136.954 14.544 136.506 14.352C136.069 14.16 135.69 13.8613 135.37 13.456C135.061 13.04 134.906 12.4853 134.906 11.792C134.906 11.184 135.061 10.6453 135.37 10.176C135.679 9.70667 136.111 9.344 136.666 9.088C137.231 8.832 137.877 8.704 138.602 8.704C139.647 8.704 140.501 8.96533 141.162 9.488C141.834 10.0107 142.213 10.704 142.298 11.568H140.698C140.645 11.1413 140.421 10.768 140.026 10.448C139.631 10.1173 139.109 9.952 138.458 9.952C137.85 9.952 137.354 10.112 136.97 10.432C136.586 10.7413 136.394 11.1787 136.394 11.744C136.394 12.1493 136.506 12.48 136.73 12.736C136.965 12.992 137.247 13.1893 137.578 13.328C137.919 13.456 138.394 13.6053 139.002 13.776C139.738 13.9787 140.33 14.1813 140.778 14.384C141.226 14.576 141.61 14.88 141.93 15.296C142.25 15.7013 142.41 16.256 142.41 16.96C142.41 17.504 142.266 18.016 141.978 18.496C141.69 18.976 141.263 19.3653 140.698 19.664C140.133 19.9627 139.466 20.112 138.698 20.112Z" fill="#2B2A2C"/>
<g opacity="0.6">
<circle cx="2" cy="2" r="2" fill="#2B2A2C"/>
<circle cx="10" cy="7" r="5" fill="#2B2A2C"/>
</g>
</svg>
