<svg width="144" height="26" viewBox="0 0 144 26" fill="none" xmlns="http://www.w3.org/2000/svg">
<path opacity="0.6" d="M22.288 20.112C21.2533 20.112 20.3093 19.872 19.456 19.392C18.6027 18.9013 17.9253 18.224 17.424 17.36C16.9333 16.4853 16.688 15.504 16.688 14.416C16.688 13.328 16.9333 12.352 17.424 11.488C17.9253 10.6133 18.6027 9.936 19.456 9.456C20.3093 8.96533 21.2533 8.72 22.288 8.72C23.3333 8.72 24.2827 8.96533 25.136 9.456C25.9893 9.936 26.6613 10.608 27.152 11.472C27.6427 12.336 27.888 13.3173 27.888 14.416C27.888 15.5147 27.6427 16.496 27.152 17.36C26.6613 18.224 25.9893 18.9013 25.136 19.392C24.2827 19.872 23.3333 20.112 22.288 20.112ZM22.288 18.848C23.0667 18.848 23.7653 18.6667 24.384 18.304C25.0133 17.9413 25.504 17.424 25.856 16.752C26.2187 16.08 26.4 15.3013 26.4 14.416C26.4 13.52 26.2187 12.7413 25.856 12.08C25.504 11.408 25.0187 10.8907 24.4 10.528C23.7813 10.1653 23.0773 9.984 22.288 9.984C21.4987 9.984 20.7947 10.1653 20.176 10.528C19.5573 10.8907 19.0667 11.408 18.704 12.08C18.352 12.7413 18.176 13.52 18.176 14.416C18.176 15.3013 18.352 16.08 18.704 16.752C19.0667 17.424 19.5573 17.9413 20.176 18.304C20.8053 18.6667 21.5093 18.848 22.288 18.848ZM36.3221 20L33.6661 15.44H31.9061V20H30.4501V8.848H34.0501C34.8928 8.848 35.6021 8.992 36.1781 9.28C36.7648 9.568 37.2021 9.95733 37.4901 10.448C37.7781 10.9387 37.9221 11.4987 37.9221 12.128C37.9221 12.896 37.6981 13.5733 37.2501 14.16C36.8128 14.7467 36.1515 15.136 35.2661 15.328L38.0661 20H36.3221ZM31.9061 14.272H34.0501C34.8395 14.272 35.4315 14.08 35.8261 13.696C36.2208 13.3013 36.4181 12.7787 36.4181 12.128C36.4181 11.4667 36.2208 10.9547 35.8261 10.592C35.4421 10.2293 34.8501 10.048 34.0501 10.048H31.9061V14.272ZM42.2805 8.848V20H40.8245V8.848H42.2805ZM53.85 12.08C53.5407 11.4293 53.0927 10.928 52.506 10.576C51.9193 10.2133 51.2367 10.032 50.458 10.032C49.6793 10.032 48.9753 10.2133 48.346 10.576C47.7273 10.928 47.2367 11.44 46.874 12.112C46.522 12.7733 46.346 13.5413 46.346 14.416C46.346 15.2907 46.522 16.0587 46.874 16.72C47.2367 17.3813 47.7273 17.8933 48.346 18.256C48.9753 18.608 49.6793 18.784 50.458 18.784C51.546 18.784 52.442 18.4587 53.146 17.808C53.85 17.1573 54.2607 16.2773 54.378 15.168H49.93V13.984H55.93V15.104C55.8447 16.0213 55.5567 16.864 55.066 17.632C54.5753 18.3893 53.93 18.992 53.13 19.44C52.33 19.8773 51.4393 20.096 50.458 20.096C49.4233 20.096 48.4793 19.856 47.626 19.376C46.7727 18.8853 46.0953 18.208 45.594 17.344C45.1033 16.48 44.858 15.504 44.858 14.416C44.858 13.328 45.1033 12.352 45.594 11.488C46.0953 10.6133 46.7727 9.936 47.626 9.456C48.4793 8.96533 49.4233 8.72 50.458 8.72C51.642 8.72 52.6873 9.01333 53.594 9.6C54.5113 10.1867 55.178 11.0133 55.594 12.08H53.85ZM65.0871 17.52H60.2231L59.3271 20H57.7911L61.8231 8.912H63.5031L67.5191 20H65.9831L65.0871 17.52ZM64.6711 16.336L62.6551 10.704L60.6391 16.336H64.6711ZM81.126 8.848V10.032H76.278V13.792H80.214V14.976H76.278V20H74.822V8.848H81.126ZM84.9805 8.848V20H83.5245V8.848H84.9805ZM96.87 20H95.414L89.558 11.12V20H88.102V8.832H89.558L95.414 17.696V8.832H96.87V20ZM106.584 17.52H101.72L100.824 20H99.288L103.32 8.912H105L109.016 20H107.48L106.584 17.52ZM106.168 16.336L104.152 10.704L102.136 16.336H106.168ZM120.181 20H118.725L112.869 11.12V20H111.413V8.832H112.869L118.725 17.696V8.832H120.181V20ZM122.759 14.416C122.759 13.328 123.005 12.352 123.495 11.488C123.986 10.6133 124.653 9.93067 125.495 9.44C126.349 8.94933 127.293 8.704 128.327 8.704C129.543 8.704 130.605 8.99733 131.511 9.584C132.418 10.1707 133.079 11.0027 133.495 12.08H131.751C131.442 11.408 130.994 10.8907 130.407 10.528C129.831 10.1653 129.138 9.984 128.327 9.984C127.549 9.984 126.85 10.1653 126.231 10.528C125.613 10.8907 125.127 11.408 124.775 12.08C124.423 12.7413 124.247 13.52 124.247 14.416C124.247 15.3013 124.423 16.08 124.775 16.752C125.127 17.4133 125.613 17.9253 126.231 18.288C126.85 18.6507 127.549 18.832 128.327 18.832C129.138 18.832 129.831 18.656 130.407 18.304C130.994 17.9413 131.442 17.424 131.751 16.752H133.495C133.079 17.8187 132.418 18.6453 131.511 19.232C130.605 19.808 129.543 20.096 128.327 20.096C127.293 20.096 126.349 19.856 125.495 19.376C124.653 18.8853 123.986 18.208 123.495 17.344C123.005 16.48 122.759 15.504 122.759 14.416ZM137.759 10.032V13.76H141.823V14.96H137.759V18.8H142.303V20H136.303V8.832H142.303V10.032H137.759Z" fill="#2B2A2C"/>
<g opacity="0.6">
<circle cx="2" cy="2" r="2" fill="#2B2A2C"/>
<circle cx="10" cy="7" r="5" fill="#2B2A2C"/>
</g>
</svg>
