<svg width="120" height="26" viewBox="0 0 120 26" fill="none" xmlns="http://www.w3.org/2000/svg">
<path opacity="0.6" d="M31.248 8.848L28.016 20H26.384L23.792 11.024L21.104 20L19.488 20.016L16.368 8.848H17.92L20.352 18.304L23.04 8.848H24.672L27.232 18.272L29.68 8.848H31.248ZM42.0734 8.848V20H40.6174V14.944H34.9374V20H33.4814V8.848H34.9374V13.744H40.6174V8.848H42.0734ZM53.0075 8.848L49.3755 15.792V20H47.9195V15.792L44.2715 8.848H45.8875L48.6395 14.496L51.3915 8.848H53.0075ZM65.1449 20.112C64.1102 20.112 63.1662 19.872 62.3129 19.392C61.4595 18.9013 60.7822 18.224 60.2809 17.36C59.7902 16.4853 59.5449 15.504 59.5449 14.416C59.5449 13.328 59.7902 12.352 60.2809 11.488C60.7822 10.6133 61.4595 9.936 62.3129 9.456C63.1662 8.96533 64.1102 8.72 65.1449 8.72C66.1902 8.72 67.1395 8.96533 67.9929 9.456C68.8462 9.936 69.5182 10.608 70.0089 11.472C70.4995 12.336 70.7449 13.3173 70.7449 14.416C70.7449 15.5147 70.4995 16.496 70.0089 17.36C69.5182 18.224 68.8462 18.9013 67.9929 19.392C67.1395 19.872 66.1902 20.112 65.1449 20.112ZM65.1449 18.848C65.9235 18.848 66.6222 18.6667 67.2409 18.304C67.8702 17.9413 68.3609 17.424 68.7129 16.752C69.0755 16.08 69.2569 15.3013 69.2569 14.416C69.2569 13.52 69.0755 12.7413 68.7129 12.08C68.3609 11.408 67.8755 10.8907 67.2569 10.528C66.6382 10.1653 65.9342 9.984 65.1449 9.984C64.3555 9.984 63.6515 10.1653 63.0329 10.528C62.4142 10.8907 61.9235 11.408 61.5609 12.08C61.2089 12.7413 61.0329 13.52 61.0329 14.416C61.0329 15.3013 61.2089 16.08 61.5609 16.752C61.9235 17.424 62.4142 17.9413 63.0329 18.304C63.6622 18.6667 64.3662 18.848 65.1449 18.848ZM79.179 20L76.523 15.44H74.763V20H73.307V8.848H76.907C77.7497 8.848 78.459 8.992 79.035 9.28C79.6217 9.568 80.059 9.95733 80.347 10.448C80.635 10.9387 80.779 11.4987 80.779 12.128C80.779 12.896 80.555 13.5733 80.107 14.16C79.6697 14.7467 79.0083 15.136 78.123 15.328L80.923 20H79.179ZM74.763 14.272H76.907C77.6963 14.272 78.2883 14.08 78.683 13.696C79.0777 13.3013 79.275 12.7787 79.275 12.128C79.275 11.4667 79.0777 10.9547 78.683 10.592C78.299 10.2293 77.707 10.048 76.907 10.048H74.763V14.272ZM85.1374 8.848V20H83.6814V8.848H85.1374ZM96.7069 12.08C96.3975 11.4293 95.9495 10.928 95.3629 10.576C94.7762 10.2133 94.0935 10.032 93.3149 10.032C92.5362 10.032 91.8322 10.2133 91.2029 10.576C90.5842 10.928 90.0935 11.44 89.7309 12.112C89.3789 12.7733 89.2029 13.5413 89.2029 14.416C89.2029 15.2907 89.3789 16.0587 89.7309 16.72C90.0935 17.3813 90.5842 17.8933 91.2029 18.256C91.8322 18.608 92.5362 18.784 93.3149 18.784C94.4029 18.784 95.2989 18.4587 96.0029 17.808C96.7069 17.1573 97.1175 16.2773 97.2349 15.168H92.7869V13.984H98.7869V15.104C98.7015 16.0213 98.4135 16.864 97.9229 17.632C97.4322 18.3893 96.7869 18.992 95.9869 19.44C95.1869 19.8773 94.2962 20.096 93.3149 20.096C92.2802 20.096 91.3362 19.856 90.4829 19.376C89.6295 18.8853 88.9522 18.208 88.4509 17.344C87.9602 16.48 87.7149 15.504 87.7149 14.416C87.7149 13.328 87.9602 12.352 88.4509 11.488C88.9522 10.6133 89.6295 9.936 90.4829 9.456C91.3362 8.96533 92.2802 8.72 93.3149 8.72C94.4989 8.72 95.5442 9.01333 96.4509 9.6C97.3682 10.1867 98.0349 11.0133 98.4509 12.08H96.7069ZM107.944 17.52H103.08L102.184 20H100.648L104.68 8.912H106.36L110.376 20H108.84L107.944 17.52ZM107.528 16.336L105.512 10.704L103.496 16.336H107.528ZM115.621 8.704C116.677 8.704 117.531 9.00267 118.181 9.6C118.832 10.1973 119.157 10.9973 119.157 12C119.157 13.12 118.811 13.952 118.117 14.496C117.424 15.0293 116.485 15.296 115.301 15.296L115.253 16.816H113.989L113.925 14.288H114.389C115.445 14.288 116.272 14.128 116.869 13.808C117.467 13.488 117.765 12.8853 117.765 12C117.765 11.36 117.573 10.8533 117.189 10.48C116.805 10.1067 116.288 9.92 115.637 9.92C114.976 9.92 114.453 10.1013 114.069 10.464C113.696 10.816 113.509 11.3013 113.509 11.92H112.133C112.133 11.28 112.277 10.72 112.565 10.24C112.853 9.74933 113.259 9.37067 113.781 9.104C114.315 8.83733 114.928 8.704 115.621 8.704ZM114.613 20.096C114.336 20.096 114.101 20 113.909 19.808C113.717 19.616 113.621 19.3813 113.621 19.104C113.621 18.8267 113.717 18.592 113.909 18.4C114.101 18.208 114.336 18.112 114.613 18.112C114.88 18.112 115.104 18.208 115.285 18.4C115.477 18.592 115.573 18.8267 115.573 19.104C115.573 19.3813 115.477 19.616 115.285 19.808C115.104 20 114.88 20.096 114.613 20.096Z" fill="#2B2A2C"/>
<g opacity="0.6">
<circle cx="2" cy="2" r="2" fill="#2B2A2C"/>
<circle cx="10" cy="7" r="5" fill="#2B2A2C"/>
</g>
</svg>
