<svg width="135" height="26" viewBox="0 0 135 26" fill="none" xmlns="http://www.w3.org/2000/svg">
<path opacity="0.6" d="M28.6349 20.112C27.6002 20.112 26.6562 19.872 25.8029 19.392C24.9495 18.9013 24.2722 18.224 23.7709 17.36C23.2802 16.4853 23.0349 15.504 23.0349 14.416C23.0349 13.328 23.2802 12.352 23.7709 11.488C24.2722 10.6133 24.9495 9.936 25.8029 9.456C26.6562 8.96533 27.6002 8.72 28.6349 8.72C29.6802 8.72 30.6295 8.96533 31.4829 9.456C32.3362 9.936 33.0082 10.608 33.4989 11.472C33.9895 12.336 34.2349 13.3173 34.2349 14.416C34.2349 15.5147 33.9895 16.496 33.4989 17.36C33.0082 18.224 32.3362 18.9013 31.4829 19.392C30.6295 19.872 29.6802 20.112 28.6349 20.112ZM28.6349 18.848C29.4135 18.848 30.1122 18.6667 30.7309 18.304C31.3602 17.9413 31.8509 17.424 32.2029 16.752C32.5655 16.08 32.7469 15.3013 32.7469 14.416C32.7469 13.52 32.5655 12.7413 32.2029 12.08C31.8509 11.408 31.3655 10.8907 30.7469 10.528C30.1282 10.1653 29.4242 9.984 28.6349 9.984C27.8455 9.984 27.1415 10.1653 26.5229 10.528C25.9042 10.8907 25.4135 11.408 25.0509 12.08C24.6989 12.7413 24.5229 13.52 24.5229 14.416C24.5229 15.3013 24.6989 16.08 25.0509 16.752C25.4135 17.424 25.9042 17.9413 26.5229 18.304C27.1522 18.6667 27.8562 18.848 28.6349 18.848ZM42.669 20L40.013 15.44H38.253V20H36.797V8.848H40.397C41.2397 8.848 41.949 8.992 42.525 9.28C43.1117 9.568 43.549 9.95733 43.837 10.448C44.125 10.9387 44.269 11.4987 44.269 12.128C44.269 12.896 44.045 13.5733 43.597 14.16C43.1597 14.7467 42.4983 15.136 41.613 15.328L44.413 20H42.669ZM38.253 14.272H40.397C41.1863 14.272 41.7783 14.08 42.173 13.696C42.5677 13.3013 42.765 12.7787 42.765 12.128C42.765 11.4667 42.5677 10.9547 42.173 10.592C41.789 10.2293 41.197 10.048 40.397 10.048H38.253V14.272ZM48.6274 8.848V20H47.1714V8.848H48.6274ZM60.1969 12.08C59.8875 11.4293 59.4395 10.928 58.8529 10.576C58.2662 10.2133 57.5835 10.032 56.8049 10.032C56.0262 10.032 55.3222 10.2133 54.6929 10.576C54.0742 10.928 53.5835 11.44 53.2209 12.112C52.8689 12.7733 52.6929 13.5413 52.6929 14.416C52.6929 15.2907 52.8689 16.0587 53.2209 16.72C53.5835 17.3813 54.0742 17.8933 54.6929 18.256C55.3222 18.608 56.0262 18.784 56.8049 18.784C57.8929 18.784 58.7889 18.4587 59.4929 17.808C60.1969 17.1573 60.6075 16.2773 60.7249 15.168H56.2769V13.984H62.2769V15.104C62.1915 16.0213 61.9035 16.864 61.4129 17.632C60.9222 18.3893 60.2769 18.992 59.4769 19.44C58.6769 19.8773 57.7862 20.096 56.8049 20.096C55.7702 20.096 54.8262 19.856 53.9729 19.376C53.1195 18.8853 52.4422 18.208 51.9409 17.344C51.4502 16.48 51.2049 15.504 51.2049 14.416C51.2049 13.328 51.4502 12.352 51.9409 11.488C52.4422 10.6133 53.1195 9.936 53.9729 9.456C54.8262 8.96533 55.7702 8.72 56.8049 8.72C57.9889 8.72 59.0342 9.01333 59.9409 9.6C60.8582 10.1867 61.5249 11.0133 61.9409 12.08H60.1969ZM71.434 17.52H66.57L65.674 20H64.138L68.17 8.912H69.85L73.866 20H72.33L71.434 17.52ZM71.018 16.336L69.002 10.704L66.986 16.336H71.018ZM87.0409 20L84.3849 15.44H82.6249V20H81.1689V8.848H84.7689C85.6115 8.848 86.3209 8.992 86.8969 9.28C87.4835 9.568 87.9209 9.95733 88.2089 10.448C88.4969 10.9387 88.6409 11.4987 88.6409 12.128C88.6409 12.896 88.4169 13.5733 87.9689 14.16C87.5315 14.7467 86.8702 15.136 85.9849 15.328L88.7849 20H87.0409ZM82.6249 14.272H84.7689C85.5582 14.272 86.1502 14.08 86.5449 13.696C86.9395 13.3013 87.1369 12.7787 87.1369 12.128C87.1369 11.4667 86.9395 10.9547 86.5449 10.592C86.1609 10.2293 85.5689 10.048 84.7689 10.048H82.6249V14.272ZM92.9992 10.032V13.76H97.0632V14.96H92.9992V18.8H97.5432V20H91.5432V8.832H97.5432V10.032H92.9992ZM106.978 17.52H102.114L101.218 20H99.6824L103.714 8.912H105.394L109.41 20H107.874L106.978 17.52ZM106.562 16.336L104.546 10.704L102.53 16.336H106.562ZM111.264 14.416C111.264 13.328 111.509 12.352 112 11.488C112.49 10.6133 113.157 9.93067 114 9.44C114.853 8.94933 115.797 8.704 116.832 8.704C118.048 8.704 119.109 8.99733 120.016 9.584C120.922 10.1707 121.584 11.0027 122 12.08H120.256C119.946 11.408 119.498 10.8907 118.912 10.528C118.336 10.1653 117.642 9.984 116.832 9.984C116.053 9.984 115.354 10.1653 114.736 10.528C114.117 10.8907 113.632 11.408 113.28 12.08C112.928 12.7413 112.752 13.52 112.752 14.416C112.752 15.3013 112.928 16.08 113.28 16.752C113.632 17.4133 114.117 17.9253 114.736 18.288C115.354 18.6507 116.053 18.832 116.832 18.832C117.642 18.832 118.336 18.656 118.912 18.304C119.498 17.9413 119.946 17.424 120.256 16.752H122C121.584 17.8187 120.922 18.6453 120.016 19.232C119.109 19.808 118.048 20.096 116.832 20.096C115.797 20.096 114.853 19.856 114 19.376C113.157 18.8853 112.49 18.208 112 17.344C111.509 16.48 111.264 15.504 111.264 14.416ZM133.399 8.848V20H131.943V14.944H126.263V20H124.807V8.848H126.263V13.744H131.943V8.848H133.399Z" fill="#2B2A2C"/>
<g opacity="0.6">
<circle cx="2" cy="2" r="2" fill="#2B2A2C"/>
<circle cx="10" cy="7" r="5" fill="#2B2A2C"/>
</g>
</svg>
