<svg width="151" height="26" viewBox="0 0 151 26" fill="none" xmlns="http://www.w3.org/2000/svg">
<path opacity="0.6" d="M22.288 20.112C21.2533 20.112 20.3093 19.872 19.456 19.392C18.6027 18.9013 17.9253 18.224 17.424 17.36C16.9333 16.4853 16.688 15.504 16.688 14.416C16.688 13.328 16.9333 12.352 17.424 11.488C17.9253 10.6133 18.6027 9.936 19.456 9.456C20.3093 8.96533 21.2533 8.72 22.288 8.72C23.3333 8.72 24.2827 8.96533 25.136 9.456C25.9893 9.936 26.6613 10.608 27.152 11.472C27.6427 12.336 27.888 13.3173 27.888 14.416C27.888 15.5147 27.6427 16.496 27.152 17.36C26.6613 18.224 25.9893 18.9013 25.136 19.392C24.2827 19.872 23.3333 20.112 22.288 20.112ZM22.288 18.848C23.0667 18.848 23.7653 18.6667 24.384 18.304C25.0133 17.9413 25.504 17.424 25.856 16.752C26.2187 16.08 26.4 15.3013 26.4 14.416C26.4 13.52 26.2187 12.7413 25.856 12.08C25.504 11.408 25.0187 10.8907 24.4 10.528C23.7813 10.1653 23.0773 9.984 22.288 9.984C21.4987 9.984 20.7947 10.1653 20.176 10.528C19.5573 10.8907 19.0667 11.408 18.704 12.08C18.352 12.7413 18.176 13.52 18.176 14.416C18.176 15.3013 18.352 16.08 18.704 16.752C19.0667 17.424 19.5573 17.9413 20.176 18.304C20.8053 18.6667 21.5093 18.848 22.288 18.848ZM36.3221 20L33.6661 15.44H31.9061V20H30.4501V8.848H34.0501C34.8928 8.848 35.6021 8.992 36.1781 9.28C36.7648 9.568 37.2021 9.95733 37.4901 10.448C37.7781 10.9387 37.9221 11.4987 37.9221 12.128C37.9221 12.896 37.6981 13.5733 37.2501 14.16C36.8128 14.7467 36.1515 15.136 35.2661 15.328L38.0661 20H36.3221ZM31.9061 14.272H34.0501C34.8395 14.272 35.4315 14.08 35.8261 13.696C36.2208 13.3013 36.4181 12.7787 36.4181 12.128C36.4181 11.4667 36.2208 10.9547 35.8261 10.592C35.4421 10.2293 34.8501 10.048 34.0501 10.048H31.9061V14.272ZM42.2805 8.848V20H40.8245V8.848H42.2805ZM53.85 12.08C53.5407 11.4293 53.0927 10.928 52.506 10.576C51.9193 10.2133 51.2367 10.032 50.458 10.032C49.6793 10.032 48.9753 10.2133 48.346 10.576C47.7273 10.928 47.2367 11.44 46.874 12.112C46.522 12.7733 46.346 13.5413 46.346 14.416C46.346 15.2907 46.522 16.0587 46.874 16.72C47.2367 17.3813 47.7273 17.8933 48.346 18.256C48.9753 18.608 49.6793 18.784 50.458 18.784C51.546 18.784 52.442 18.4587 53.146 17.808C53.85 17.1573 54.2607 16.2773 54.378 15.168H49.93V13.984H55.93V15.104C55.8447 16.0213 55.5567 16.864 55.066 17.632C54.5753 18.3893 53.93 18.992 53.13 19.44C52.33 19.8773 51.4393 20.096 50.458 20.096C49.4233 20.096 48.4793 19.856 47.626 19.376C46.7727 18.8853 46.0953 18.208 45.594 17.344C45.1033 16.48 44.858 15.504 44.858 14.416C44.858 13.328 45.1033 12.352 45.594 11.488C46.0953 10.6133 46.7727 9.936 47.626 9.456C48.4793 8.96533 49.4233 8.72 50.458 8.72C51.642 8.72 52.6873 9.01333 53.594 9.6C54.5113 10.1867 55.178 11.0133 55.594 12.08H53.85ZM65.0871 17.52H60.2231L59.3271 20H57.7911L61.8231 8.912H63.5031L67.5191 20H65.9831L65.0871 17.52ZM64.6711 16.336L62.6551 10.704L60.6391 16.336H64.6711ZM78.358 20.112C77.622 20.112 76.9607 19.984 76.374 19.728C75.798 19.4613 75.3447 19.0987 75.014 18.64C74.6833 18.1707 74.5127 17.632 74.502 17.024H76.054C76.1073 17.5467 76.3207 17.9893 76.694 18.352C77.078 18.704 77.6327 18.88 78.358 18.88C79.0513 18.88 79.5953 18.7093 79.99 18.368C80.3953 18.016 80.598 17.568 80.598 17.024C80.598 16.5973 80.4807 16.2507 80.246 15.984C80.0113 15.7173 79.718 15.5147 79.366 15.376C79.014 15.2373 78.5393 15.088 77.942 14.928C77.206 14.736 76.614 14.544 76.166 14.352C75.7287 14.16 75.35 13.8613 75.03 13.456C74.7207 13.04 74.566 12.4853 74.566 11.792C74.566 11.184 74.7207 10.6453 75.03 10.176C75.3393 9.70667 75.7713 9.344 76.326 9.088C76.8913 8.832 77.5367 8.704 78.262 8.704C79.3073 8.704 80.1607 8.96533 80.822 9.488C81.494 10.0107 81.8727 10.704 81.958 11.568H80.358C80.3047 11.1413 80.0807 10.768 79.686 10.448C79.2913 10.1173 78.7687 9.952 78.118 9.952C77.51 9.952 77.014 10.112 76.63 10.432C76.246 10.7413 76.054 11.1787 76.054 11.744C76.054 12.1493 76.166 12.48 76.39 12.736C76.6247 12.992 76.9073 13.1893 77.238 13.328C77.5793 13.456 78.054 13.6053 78.662 13.776C79.398 13.9787 79.99 14.1813 80.438 14.384C80.886 14.576 81.27 14.88 81.59 15.296C81.91 15.7013 82.07 16.256 82.07 16.96C82.07 17.504 81.926 18.016 81.638 18.496C81.35 18.976 80.9233 19.3653 80.358 19.664C79.7927 19.9627 79.126 20.112 78.358 20.112ZM86.3086 10.032V13.76H90.3726V14.96H86.3086V18.8H90.8526V20H84.8526V8.832H90.8526V10.032H86.3086ZM99.5678 20L96.9118 15.44H95.1518V20H93.6958V8.848H97.2958C98.1384 8.848 98.8478 8.992 99.4238 9.28C100.01 9.568 100.448 9.95733 100.736 10.448C101.024 10.9387 101.168 11.4987 101.168 12.128C101.168 12.896 100.944 13.5733 100.496 14.16C100.058 14.7467 99.3971 15.136 98.5118 15.328L101.312 20H99.5678ZM95.1518 14.272H97.2958C98.0851 14.272 98.6771 14.08 99.0718 13.696C99.4664 13.3013 99.6638 12.7787 99.6638 12.128C99.6638 11.4667 99.4664 10.9547 99.0718 10.592C98.6878 10.2293 98.0958 10.048 97.2958 10.048H95.1518V14.272ZM113.286 8.848L109.078 20H107.398L103.19 8.848H104.742L108.246 18.464L111.75 8.848H113.286ZM116.979 8.848V20H115.523V8.848H116.979ZM119.556 14.416C119.556 13.328 119.801 12.352 120.292 11.488C120.783 10.6133 121.449 9.93067 122.292 9.44C123.145 8.94933 124.089 8.704 125.124 8.704C126.34 8.704 127.401 8.99733 128.308 9.584C129.215 10.1707 129.876 11.0027 130.292 12.08H128.548C128.239 11.408 127.791 10.8907 127.204 10.528C126.628 10.1653 125.935 9.984 125.124 9.984C124.345 9.984 123.647 10.1653 123.028 10.528C122.409 10.8907 121.924 11.408 121.572 12.08C121.22 12.7413 121.044 13.52 121.044 14.416C121.044 15.3013 121.22 16.08 121.572 16.752C121.924 17.4133 122.409 17.9253 123.028 18.288C123.647 18.6507 124.345 18.832 125.124 18.832C125.935 18.832 126.628 18.656 127.204 18.304C127.791 17.9413 128.239 17.424 128.548 16.752H130.292C129.876 17.8187 129.215 18.6453 128.308 19.232C127.401 19.808 126.34 20.096 125.124 20.096C124.089 20.096 123.145 19.856 122.292 19.376C121.449 18.8853 120.783 18.208 120.292 17.344C119.801 16.48 119.556 15.504 119.556 14.416ZM134.556 10.032V13.76H138.62V14.96H134.556V18.8H139.1V20H133.1V8.832H139.1V10.032H134.556ZM145.479 20.112C144.743 20.112 144.081 19.984 143.495 19.728C142.919 19.4613 142.465 19.0987 142.135 18.64C141.804 18.1707 141.633 17.632 141.623 17.024H143.175C143.228 17.5467 143.441 17.9893 143.815 18.352C144.199 18.704 144.753 18.88 145.479 18.88C146.172 18.88 146.716 18.7093 147.111 18.368C147.516 18.016 147.719 17.568 147.719 17.024C147.719 16.5973 147.601 16.2507 147.367 15.984C147.132 15.7173 146.839 15.5147 146.487 15.376C146.135 15.2373 145.66 15.088 145.063 14.928C144.327 14.736 143.735 14.544 143.287 14.352C142.849 14.16 142.471 13.8613 142.151 13.456C141.841 13.04 141.687 12.4853 141.687 11.792C141.687 11.184 141.841 10.6453 142.151 10.176C142.46 9.70667 142.892 9.344 143.447 9.088C144.012 8.832 144.657 8.704 145.383 8.704C146.428 8.704 147.281 8.96533 147.943 9.488C148.615 10.0107 148.993 10.704 149.079 11.568H147.479C147.425 11.1413 147.201 10.768 146.807 10.448C146.412 10.1173 145.889 9.952 145.239 9.952C144.631 9.952 144.135 10.112 143.751 10.432C143.367 10.7413 143.175 11.1787 143.175 11.744C143.175 12.1493 143.287 12.48 143.511 12.736C143.745 12.992 144.028 13.1893 144.359 13.328C144.7 13.456 145.175 13.6053 145.783 13.776C146.519 13.9787 147.111 14.1813 147.559 14.384C148.007 14.576 148.391 14.88 148.711 15.296C149.031 15.7013 149.191 16.256 149.191 16.96C149.191 17.504 149.047 18.016 148.759 18.496C148.471 18.976 148.044 19.3653 147.479 19.664C146.913 19.9627 146.247 20.112 145.479 20.112Z" fill="#2B2A2C"/>
<g opacity="0.6">
<circle cx="2" cy="2" r="2" fill="#2B2A2C"/>
<circle cx="10" cy="7" r="5" fill="#2B2A2C"/>
</g>
</svg>
