<svg width="156" height="26" viewBox="0 0 156 26" fill="none" xmlns="http://www.w3.org/2000/svg">
<path opacity="0.6" d="M22.288 20.112C21.2533 20.112 20.3093 19.872 19.456 19.392C18.6027 18.9013 17.9253 18.224 17.424 17.36C16.9333 16.4853 16.688 15.504 16.688 14.416C16.688 13.328 16.9333 12.352 17.424 11.488C17.9253 10.6133 18.6027 9.936 19.456 9.456C20.3093 8.96533 21.2533 8.72 22.288 8.72C23.3333 8.72 24.2827 8.96533 25.136 9.456C25.9893 9.936 26.6613 10.608 27.152 11.472C27.6427 12.336 27.888 13.3173 27.888 14.416C27.888 15.5147 27.6427 16.496 27.152 17.36C26.6613 18.224 25.9893 18.9013 25.136 19.392C24.2827 19.872 23.3333 20.112 22.288 20.112ZM22.288 18.848C23.0667 18.848 23.7653 18.6667 24.384 18.304C25.0133 17.9413 25.504 17.424 25.856 16.752C26.2187 16.08 26.4 15.3013 26.4 14.416C26.4 13.52 26.2187 12.7413 25.856 12.08C25.504 11.408 25.0187 10.8907 24.4 10.528C23.7813 10.1653 23.0773 9.984 22.288 9.984C21.4987 9.984 20.7947 10.1653 20.176 10.528C19.5573 10.8907 19.0667 11.408 18.704 12.08C18.352 12.7413 18.176 13.52 18.176 14.416C18.176 15.3013 18.352 16.08 18.704 16.752C19.0667 17.424 19.5573 17.9413 20.176 18.304C20.8053 18.6667 21.5093 18.848 22.288 18.848ZM36.3221 20L33.6661 15.44H31.9061V20H30.4501V8.848H34.0501C34.8928 8.848 35.6021 8.992 36.1781 9.28C36.7648 9.568 37.2021 9.95733 37.4901 10.448C37.7781 10.9387 37.9221 11.4987 37.9221 12.128C37.9221 12.896 37.6981 13.5733 37.2501 14.16C36.8128 14.7467 36.1515 15.136 35.2661 15.328L38.0661 20H36.3221ZM31.9061 14.272H34.0501C34.8395 14.272 35.4315 14.08 35.8261 13.696C36.2208 13.3013 36.4181 12.7787 36.4181 12.128C36.4181 11.4667 36.2208 10.9547 35.8261 10.592C35.4421 10.2293 34.8501 10.048 34.0501 10.048H31.9061V14.272ZM42.2805 8.848V20H40.8245V8.848H42.2805ZM53.85 12.08C53.5407 11.4293 53.0927 10.928 52.506 10.576C51.9193 10.2133 51.2367 10.032 50.458 10.032C49.6793 10.032 48.9753 10.2133 48.346 10.576C47.7273 10.928 47.2367 11.44 46.874 12.112C46.522 12.7733 46.346 13.5413 46.346 14.416C46.346 15.2907 46.522 16.0587 46.874 16.72C47.2367 17.3813 47.7273 17.8933 48.346 18.256C48.9753 18.608 49.6793 18.784 50.458 18.784C51.546 18.784 52.442 18.4587 53.146 17.808C53.85 17.1573 54.2607 16.2773 54.378 15.168H49.93V13.984H55.93V15.104C55.8447 16.0213 55.5567 16.864 55.066 17.632C54.5753 18.3893 53.93 18.992 53.13 19.44C52.33 19.8773 51.4393 20.096 50.458 20.096C49.4233 20.096 48.4793 19.856 47.626 19.376C46.7727 18.8853 46.0953 18.208 45.594 17.344C45.1033 16.48 44.858 15.504 44.858 14.416C44.858 13.328 45.1033 12.352 45.594 11.488C46.0953 10.6133 46.7727 9.936 47.626 9.456C48.4793 8.96533 49.4233 8.72 50.458 8.72C51.642 8.72 52.6873 9.01333 53.594 9.6C54.5113 10.1867 55.178 11.0133 55.594 12.08H53.85ZM65.0871 17.52H60.2231L59.3271 20H57.7911L61.8231 8.912H63.5031L67.5191 20H65.9831L65.0871 17.52ZM64.6711 16.336L62.6551 10.704L60.6391 16.336H64.6711ZM82.278 12.112C82.278 13.04 81.958 13.8133 81.318 14.432C80.6887 15.04 79.7233 15.344 78.422 15.344H76.278V20H74.822V8.848H78.422C79.6807 8.848 80.6353 9.152 81.286 9.76C81.9473 10.368 82.278 11.152 82.278 12.112ZM78.422 14.144C79.2327 14.144 79.83 13.968 80.214 13.616C80.598 13.264 80.79 12.7627 80.79 12.112C80.79 10.736 80.0007 10.048 78.422 10.048H76.278V14.144H78.422ZM91.3196 17.52H86.4556L85.5596 20H84.0236L88.0556 8.912H89.7356L93.7516 20H92.2156L91.3196 17.52ZM90.9036 16.336L88.8876 10.704L86.8716 16.336H90.9036ZM102.021 20L99.3649 15.44H97.6049V20H96.1489V8.848H99.7489C100.592 8.848 101.301 8.992 101.877 9.28C102.464 9.568 102.901 9.95733 103.189 10.448C103.477 10.9387 103.621 11.4987 103.621 12.128C103.621 12.896 103.397 13.5733 102.949 14.16C102.512 14.7467 101.85 15.136 100.965 15.328L103.765 20H102.021ZM97.6049 14.272H99.7489C100.538 14.272 101.13 14.08 101.525 13.696C101.92 13.3013 102.117 12.7787 102.117 12.128C102.117 11.4667 101.92 10.9547 101.525 10.592C101.141 10.2293 100.549 10.048 99.7489 10.048H97.6049V14.272ZM113.387 8.848V10.032H110.347V20H108.891V10.032H105.835V8.848H113.387ZM124.588 20H123.132L117.276 11.12V20H115.82V8.832H117.276L123.132 17.696V8.832H124.588V20ZM129.166 10.032V13.76H133.23V14.96H129.166V18.8H133.71V20H127.71V8.832H133.71V10.032H129.166ZM142.425 20L139.769 15.44H138.009V20H136.553V8.848H140.153C140.995 8.848 141.705 8.992 142.281 9.28C142.867 9.568 143.305 9.95733 143.593 10.448C143.881 10.9387 144.025 11.4987 144.025 12.128C144.025 12.896 143.801 13.5733 143.353 14.16C142.915 14.7467 142.254 15.136 141.369 15.328L144.169 20H142.425ZM138.009 14.272H140.153C140.942 14.272 141.534 14.08 141.929 13.696C142.323 13.3013 142.521 12.7787 142.521 12.128C142.521 11.4667 142.323 10.9547 141.929 10.592C141.545 10.2293 140.953 10.048 140.153 10.048H138.009V14.272ZM150.463 20.112C149.727 20.112 149.066 19.984 148.479 19.728C147.903 19.4613 147.45 19.0987 147.119 18.64C146.788 18.1707 146.618 17.632 146.607 17.024H148.159C148.212 17.5467 148.426 17.9893 148.799 18.352C149.183 18.704 149.738 18.88 150.463 18.88C151.156 18.88 151.7 18.7093 152.095 18.368C152.5 18.016 152.703 17.568 152.703 17.024C152.703 16.5973 152.586 16.2507 152.351 15.984C152.116 15.7173 151.823 15.5147 151.471 15.376C151.119 15.2373 150.644 15.088 150.047 14.928C149.311 14.736 148.719 14.544 148.271 14.352C147.834 14.16 147.455 13.8613 147.135 13.456C146.826 13.04 146.671 12.4853 146.671 11.792C146.671 11.184 146.826 10.6453 147.135 10.176C147.444 9.70667 147.876 9.344 148.431 9.088C148.996 8.832 149.642 8.704 150.367 8.704C151.412 8.704 152.266 8.96533 152.927 9.488C153.599 10.0107 153.978 10.704 154.063 11.568H152.463C152.41 11.1413 152.186 10.768 151.791 10.448C151.396 10.1173 150.874 9.952 150.223 9.952C149.615 9.952 149.119 10.112 148.735 10.432C148.351 10.7413 148.159 11.1787 148.159 11.744C148.159 12.1493 148.271 12.48 148.495 12.736C148.73 12.992 149.012 13.1893 149.343 13.328C149.684 13.456 150.159 13.6053 150.767 13.776C151.503 13.9787 152.095 14.1813 152.543 14.384C152.991 14.576 153.375 14.88 153.695 15.296C154.015 15.7013 154.175 16.256 154.175 16.96C154.175 17.504 154.031 18.016 153.743 18.496C153.455 18.976 153.028 19.3653 152.463 19.664C151.898 19.9627 151.231 20.112 150.463 20.112Z" fill="#2B2A2C"/>
<g opacity="0.6">
<circle cx="2" cy="2" r="2" fill="#2B2A2C"/>
<circle cx="10" cy="7" r="5" fill="#2B2A2C"/>
</g>
</svg>
