<svg width="24" height="24" viewBox="0 0 24 24" fill="none" xmlns="http://www.w3.org/2000/svg">
<path d="M16.9921 5.9038V5.0398C16.9921 4.9198 16.8961 4.7998 16.7521 4.7998C16.6081 4.7998 16.5121 4.8958 16.5121 5.0398V5.9038H7.56006V5.0398C7.56006 4.9198 7.46406 4.7998 7.32006 4.7998C7.17606 4.7998 7.08006 4.8958 7.08006 5.0398V5.9038H7.03206C5.37606 5.9038 4.00806 7.2478 4.00806 8.9278V16.1998C4.00806 17.8558 5.35206 19.2238 7.03206 19.2238H16.9441C18.6001 19.2238 19.9681 17.8798 19.9681 16.1998V8.9038C19.9921 7.2478 18.6481 5.9038 16.9921 5.9038ZM7.03206 6.3598H7.08006V7.0078C7.08006 7.1278 7.17606 7.2478 7.32006 7.2478C7.46406 7.2478 7.56006 7.1518 7.56006 7.0078V6.3598H16.5361V7.0078C16.5361 7.1278 16.6321 7.2478 16.7761 7.2478C16.9201 7.2478 17.0161 7.1518 17.0161 7.0078V6.3838C18.3601 6.4078 19.4641 7.4638 19.5361 8.7838H4.48806C4.56006 7.4158 5.68806 6.3598 7.03206 6.3598ZM16.9681 18.7438H7.03206C5.61606 18.7438 4.48806 17.5918 4.48806 16.1998V9.2398H19.5121V16.1998C19.5121 17.5918 18.3601 18.7438 16.9681 18.7438Z" fill="black"/>
<path d="M7.08005 10.584C6.43205 10.584 5.90405 11.112 5.90405 11.76C5.90405 12.408 6.43205 12.936 7.08005 12.936C7.72805 12.936 8.25605 12.408 8.25605 11.76C8.25605 11.112 7.72805 10.584 7.08005 10.584ZM7.08005 12.456C6.69605 12.456 6.38405 12.144 6.38405 11.76C6.38405 11.376 6.69605 11.064 7.08005 11.064C7.46405 11.064 7.77605 11.376 7.77605 11.76C7.80005 12.144 7.46405 12.456 7.08005 12.456Z" fill="black"/>
<path d="M10.344 10.584C9.69597 10.584 9.16797 11.112 9.16797 11.76C9.16797 12.408 9.69597 12.936 10.344 12.936C10.992 12.936 11.52 12.408 11.52 11.76C11.496 11.112 10.968 10.584 10.344 10.584ZM10.344 12.456C9.95997 12.456 9.64797 12.144 9.64797 11.76C9.64797 11.376 9.95997 11.064 10.344 11.064C10.728 11.064 11.04 11.376 11.04 11.76C11.04 12.144 10.728 12.456 10.344 12.456Z" fill="black"/>
</svg>
