<svg width="36" height="36" viewBox="0 0 36 36" fill="none" xmlns="http://www.w3.org/2000/svg">
<path d="M24.2279 20.3397C24.4799 20.3037 24.7679 20.2677 25.0199 20.2317C25.3439 20.1957 25.7399 20.0517 25.9559 19.5117L25.9919 19.4397V16.9197L25.9559 16.8477C25.7399 16.3077 25.3079 16.1637 25.0199 16.1277C24.7319 16.0917 24.4799 16.0557 24.1919 16.0197C24.0479 16.0197 23.9039 15.9837 23.7599 15.9837C23.7239 15.8757 23.6519 15.7317 23.6159 15.6237C23.8319 15.3357 24.0479 15.0477 24.2639 14.7957L24.3719 14.6517C24.7319 14.1837 24.7319 13.6437 24.2999 13.2117C23.8319 12.7437 23.3639 12.2757 22.8959 11.8077C22.4639 11.3757 21.9239 11.3397 21.4559 11.7357L21.1319 11.9877C20.9159 12.1677 20.6999 12.3477 20.4839 12.4917C20.3759 12.4557 20.2679 12.3837 20.1239 12.3477C20.0879 11.9157 20.0159 11.4837 19.9799 11.0517C19.9079 10.4757 19.5119 10.1157 18.9359 10.1157C18.2879 10.1157 17.6039 10.1157 16.9559 10.1157C16.3439 10.1157 15.9479 10.4757 15.8759 11.0877C15.8399 11.3037 15.8399 11.5197 15.8039 11.7357C15.7679 11.9517 15.7679 12.1317 15.7319 12.3477C15.6239 12.3837 15.4799 12.4557 15.3719 12.4917C15.0479 12.2397 14.7599 11.9877 14.4359 11.7717L14.3639 11.6997C13.8959 11.3397 13.3919 11.3757 12.9599 11.7717C12.8519 11.8797 11.6279 13.1037 11.5559 13.1757C11.1239 13.6077 11.0879 14.1477 11.4839 14.6157L11.7359 14.9397C11.9159 15.1557 12.0959 15.3717 12.2759 15.6237C12.2039 15.7677 12.1679 15.8757 12.1319 15.9837C11.6999 16.0197 11.2679 16.0917 10.8359 16.1277C10.2599 16.1997 9.8999 16.5957 9.8999 17.1717V19.1517C9.8999 19.7637 10.2599 20.1597 10.8719 20.2317C11.1239 20.2677 11.3759 20.3037 11.6279 20.3037C11.7719 20.3397 11.9519 20.3397 12.0959 20.3757C12.1319 20.4837 12.2039 20.6277 12.2399 20.7357C12.0599 20.9517 11.9159 21.1677 11.7359 21.3837L11.4839 21.7077C11.0879 22.2117 11.1239 22.7157 11.5559 23.1837L12.9239 24.5517C13.3559 24.9837 13.8959 25.0197 14.3639 24.6237L14.6879 24.3717C14.9039 24.1917 15.1199 24.0477 15.3359 23.8677C15.4439 23.9037 15.5519 23.9757 15.6599 24.0117C15.6599 24.0837 15.6959 24.1197 15.7319 24.1917C15.7319 24.2637 15.7319 24.3357 15.7679 24.4077C15.8039 24.6597 15.8399 24.9117 15.8399 25.1637C15.8759 25.7037 16.1279 26.0637 16.5959 26.2437L16.6679 26.2797H19.1879L19.2599 26.2437C19.7279 26.0637 19.9799 25.7037 20.0159 25.1637C20.0159 24.9117 20.0519 24.6957 20.0879 24.4437C20.0879 24.3357 20.1239 24.2637 20.1239 24.1557C20.1599 24.1197 20.1959 24.0837 20.1959 24.0117C20.3039 23.9757 20.4119 23.9397 20.5199 23.8677C20.7359 24.0117 20.9159 24.1917 21.1319 24.3357L21.4919 24.6237C21.9959 25.0197 22.4999 24.9837 22.9679 24.5517L24.3359 23.1837C24.7679 22.7517 24.8039 22.2117 24.4079 21.7077L24.1559 21.4197C23.9759 21.2037 23.7959 20.9517 23.6159 20.7357C23.6519 20.6277 23.7239 20.5197 23.7599 20.3757C23.9399 20.3757 24.0839 20.3757 24.2279 20.3397ZM19.4039 24.3357C19.3679 24.5877 19.3319 24.8397 19.3319 25.0917C19.3319 25.3797 19.2239 25.4877 19.0799 25.5237H16.8119C16.6679 25.4517 16.5959 25.3437 16.5599 25.0917C16.5239 24.8037 16.5239 24.5517 16.4879 24.2997C16.4519 24.1557 16.4519 24.0117 16.4519 23.8677C16.4519 23.8317 16.4519 23.7957 16.4159 23.7597V21.8877C16.4159 21.6717 16.3079 21.4557 16.1279 21.3117C15.0479 20.5917 14.4719 19.3317 14.5799 18.0357C14.6879 16.9557 15.2999 15.9477 16.2359 15.3717L16.1999 18.0717C16.1999 18.3237 16.3079 18.5397 16.5239 18.6477L17.7839 19.4037C17.9999 19.5477 18.2879 19.5117 18.5039 19.3677L19.5119 18.6477C19.6919 18.5397 19.7999 18.3237 19.7999 18.1077L19.8359 15.2637C20.4119 15.6957 21.3479 16.6317 21.4559 18.1077C21.5639 19.4397 20.9159 20.7357 19.8359 21.4917C19.6559 21.5997 19.5479 21.8157 19.5479 22.0317C19.5479 22.2837 19.5479 22.6437 19.5119 23.0037C19.5119 23.2557 19.5119 23.5077 19.5119 23.7237C19.4759 23.7957 19.4399 23.8677 19.4399 23.9397C19.4399 24.0477 19.4399 24.1917 19.4039 24.3357ZM23.0399 21.1317C23.2199 21.3837 23.4359 21.6357 23.6159 21.8517L23.8679 22.1397C24.0479 22.3557 24.0479 22.4637 23.8319 22.6797L22.4639 24.0477C22.2479 24.2637 22.1399 24.2637 21.9239 24.0837L21.5639 23.7957C21.3479 23.6157 21.1319 23.4357 20.9159 23.2917C20.6639 23.1117 20.4479 23.1477 20.3039 23.2197H20.2679C20.2679 23.1477 20.2679 23.0397 20.2679 22.9677C20.2679 22.6077 20.2679 22.2837 20.2679 22.0317C21.5639 21.1317 22.2839 19.5837 22.1759 18.0357C22.0679 16.2357 20.9159 15.1557 20.2319 14.6517C20.0159 14.5077 19.7639 14.4717 19.5479 14.5797C19.3319 14.6877 19.1879 14.9037 19.1879 15.1917L19.1519 18.0717L18.1439 18.7917L16.8839 18.0717L16.9199 15.4077C16.9199 15.1557 16.7759 14.9397 16.5959 14.8317C16.3799 14.7237 16.1279 14.7237 15.9119 14.8317C14.7599 15.5157 14.0039 16.7397 13.8959 18.0357C13.7519 19.5837 14.4719 21.0597 15.7319 21.9237V23.2557C15.6959 23.2557 15.6599 23.2197 15.6239 23.2197C15.4799 23.1477 15.2639 23.1117 15.0119 23.2917C14.7959 23.4717 14.5439 23.6517 14.2919 23.8317L13.9679 24.1197C13.7519 24.2997 13.6439 24.2637 13.4279 24.0837L12.0599 22.7157C11.8799 22.5357 11.8439 22.3917 12.0239 22.1757L12.2759 21.8517C12.4559 21.6357 12.6359 21.3837 12.8159 21.1677C12.9959 20.9157 12.9599 20.6997 12.8879 20.5557C12.8159 20.4117 12.7439 20.2677 12.7079 20.1237C12.6359 19.9077 12.4559 19.7997 12.2399 19.7637C12.0599 19.7277 11.8799 19.7277 11.6999 19.6917C11.4479 19.6557 11.1959 19.6197 10.9439 19.6197C10.6559 19.5837 10.5839 19.4757 10.5839 19.2237V17.2437C10.5839 17.0277 10.6919 16.9197 10.9079 16.8837C11.3399 16.8117 11.7719 16.7757 12.2399 16.7397C12.5639 16.7037 12.7079 16.4877 12.7439 16.3077C12.7799 16.1997 12.8519 16.0557 12.9239 15.9117C12.9959 15.7677 13.0319 15.5517 12.8519 15.2997C12.6719 15.0477 12.4559 14.8317 12.2759 14.5797L12.0239 14.2557C11.8799 14.0037 11.8799 13.8597 12.0599 13.6797C12.1319 13.6077 13.3559 12.3837 13.4639 12.2757C13.6439 12.0957 13.7519 12.0957 13.9319 12.2397L14.0039 12.3117C14.3279 12.5637 14.6519 12.8157 14.9759 13.0677C15.2279 13.2837 15.4799 13.2117 15.6239 13.1397C15.7679 13.0677 15.9119 12.9957 16.0559 12.9597C16.2719 12.8877 16.4159 12.7077 16.4159 12.4917C16.4519 12.2757 16.4519 12.0237 16.4879 11.8077C16.5239 11.5917 16.5239 11.3757 16.5599 11.1597C16.5959 10.9077 16.7039 10.7997 16.9559 10.7997C17.6039 10.7997 18.2879 10.7997 18.9359 10.7997C19.1519 10.7997 19.2599 10.9077 19.2959 11.1237C19.3679 11.5557 19.4039 11.9877 19.4399 12.4557C19.4759 12.7797 19.6919 12.9237 19.8719 12.9957C20.0159 13.0317 20.1599 13.1037 20.2679 13.1757C20.4119 13.2477 20.6279 13.2837 20.8799 13.1037C21.1319 12.9237 21.3479 12.7437 21.5999 12.5277L21.9239 12.2757C22.1399 12.0957 22.2479 12.1317 22.4279 12.3117C22.8959 12.7797 23.3639 13.2477 23.8319 13.7157C24.0119 13.8957 24.0119 14.0037 23.8679 14.2197L23.7599 14.3637C23.5439 14.6517 23.2919 14.9397 23.0759 15.2277C22.8599 15.4797 22.9319 15.7317 23.0039 15.8757C23.0759 16.0197 23.1119 16.1637 23.1839 16.3077C23.2559 16.5237 23.4359 16.6677 23.6519 16.6677C23.8319 16.7037 23.9759 16.7037 24.1559 16.7397C24.4439 16.7757 24.6959 16.8117 24.9839 16.8477C25.1279 16.8477 25.2359 16.9197 25.3079 17.0997V19.3677C25.2359 19.5477 25.0919 19.5837 24.9839 19.6197C24.6959 19.6557 24.4439 19.6917 24.1559 19.7277C23.9759 19.7637 23.7959 19.7637 23.6519 19.7997C23.4359 19.8357 23.2559 19.9437 23.1839 20.1597C23.1119 20.3397 23.0759 20.4837 23.0039 20.5917C22.8959 20.6637 22.8599 20.9157 23.0399 21.1317Z" fill="#211E24"/>
<path d="M9.43194 15.4799C9.57594 15.3359 9.57594 15.1199 9.43194 14.9759C9.28794 14.8319 9.07194 14.8319 8.92794 14.9759L8.09994 15.8039C9.21594 11.5559 12.7799 8.35186 16.8479 7.91986C22.0319 7.37986 27.0359 11.4479 27.9719 16.9559C28.0079 17.1359 28.1519 17.2439 28.3319 17.2439C28.3679 17.2439 28.3679 17.2439 28.4039 17.2439C28.5839 17.2079 28.7279 17.0279 28.6919 16.8479C27.6839 10.9799 22.3559 6.69586 16.8119 7.23586C12.4199 7.66786 8.63994 11.1239 7.45194 15.6959L6.98394 14.5079C6.91194 14.3279 6.69594 14.2559 6.51594 14.3279C6.33594 14.3999 6.26394 14.6159 6.33594 14.7959L7.45194 17.5679L9.43194 15.4799Z" fill="#211E24"/>
<path d="M29.7 20.8076L28.584 18.0356L26.568 20.0876C26.424 20.2316 26.424 20.4476 26.568 20.5916C26.712 20.7356 26.928 20.7356 27.072 20.5916L27.9 19.7636C26.928 24.2636 23.292 27.6476 18.972 28.0796C13.716 28.5836 8.748 24.5516 7.848 19.0436C7.812 18.8636 7.632 18.7196 7.452 18.7556C7.272 18.7916 7.128 18.9716 7.164 19.1516C8.064 24.6596 12.816 28.7996 18.072 28.7996C18.396 28.7996 18.72 28.7996 19.044 28.7636C23.688 28.2956 27.576 24.6956 28.62 19.9076L29.088 21.0956C29.16 21.2396 29.268 21.3116 29.412 21.3116C29.448 21.3116 29.484 21.3116 29.556 21.2756C29.7 21.1676 29.772 20.9876 29.7 20.8076Z" fill="#211E24"/>
</svg>
