<svg width="24" height="24" viewBox="0 0 24 24" fill="none" xmlns="http://www.w3.org/2000/svg">
<path d="M19.152 10.9678C19.008 10.6078 18.744 10.3918 18.36 10.3678C18.12 10.3438 17.88 10.3198 17.64 10.2958C17.496 10.2718 17.352 10.2718 17.184 10.2478C17.136 10.1278 17.088 9.98377 17.016 9.83977C17.232 9.57577 17.448 9.31177 17.64 9.04777L17.76 8.90377C18.072 8.49577 18.048 8.08777 17.688 7.72777C17.28 7.29577 16.848 6.88777 16.416 6.45577C16.056 6.09577 15.624 6.07177 15.216 6.38377L14.904 6.62377C14.688 6.79177 14.496 6.95977 14.28 7.12777C14.16 7.07977 14.016 7.00777 13.872 6.95977C13.872 6.95977 13.872 6.95977 13.872 6.93577C13.848 6.57577 13.8 6.19177 13.728 5.73577C13.656 5.27977 13.344 4.96777 12.864 4.96777C12.264 4.96777 11.664 4.96777 11.064 4.96777C10.56 4.96777 10.224 5.25577 10.176 5.75977C10.152 5.95177 10.128 6.14377 10.104 6.33577C10.08 6.52777 10.056 6.74377 10.032 6.93577C9.912 6.98377 9.768 7.03177 9.624 7.10377C9.336 6.86377 9.048 6.64777 8.76 6.43177L8.664 6.35977C8.28 6.07177 7.848 6.09577 7.512 6.43177C7.416 6.52777 6.312 7.63177 6.24 7.70377C5.88 8.08777 5.856 8.49577 6.168 8.90377L6.408 9.19177C6.576 9.40777 6.744 9.59977 6.912 9.83977C6.84 9.98377 6.792 10.1038 6.744 10.2478C6.336 10.2958 5.928 10.3438 5.544 10.3918C5.064 10.4638 4.776 10.7758 4.776 11.2558C4.776 11.7838 4.776 12.3358 4.776 12.8638V13.0318C4.776 13.5598 5.064 13.8718 5.592 13.9438C5.832 13.9678 6.048 13.9918 6.288 14.0158C6.432 14.0398 6.6 14.0638 6.768 14.0638C6.816 14.1838 6.864 14.3278 6.936 14.4718C6.768 14.6878 6.6 14.8798 6.432 15.0958L6.192 15.4078C5.856 15.8158 5.88 16.2478 6.264 16.6318C6.672 17.0398 7.08 17.4718 7.512 17.8798C7.872 18.2398 8.304 18.2638 8.712 17.9518L9.024 17.7118C9.24 17.5438 9.432 17.3998 9.648 17.2078C9.768 17.2558 9.888 17.3278 10.032 17.3758V17.4238C10.032 17.4718 10.056 17.5198 10.08 17.5678C10.08 17.6398 10.104 17.7118 10.104 17.7838C10.128 17.9998 10.176 18.2398 10.176 18.4798C10.2 18.9118 10.416 19.2238 10.8 19.3678L10.848 19.3918H13.104L13.152 19.3678C13.536 19.2238 13.752 18.9118 13.776 18.4558C13.8 18.2398 13.824 17.9998 13.848 17.7838C13.848 17.6878 13.872 17.6158 13.872 17.5198C13.92 17.4718 13.944 17.4238 13.944 17.3758C14.064 17.3278 14.184 17.2798 14.304 17.2318C14.496 17.3998 14.712 17.5438 14.904 17.7118L15.24 17.9758C15.648 18.3118 16.08 18.2878 16.464 17.9038C16.872 17.4958 17.28 17.0878 17.688 16.6798C18.072 16.2958 18.096 15.8878 17.76 15.4558L17.52 15.1198C17.352 14.9038 17.184 14.6878 17.016 14.4718C17.064 14.3518 17.136 14.2318 17.184 14.0638C17.328 14.0398 17.496 14.0398 17.64 14.0158C17.88 13.9918 18.12 13.9678 18.36 13.9438C18.744 13.8958 19.008 13.7038 19.152 13.3438L19.176 13.2958V11.0398L19.152 10.9678ZM13.368 17.6878C13.344 17.9038 13.296 18.1438 13.296 18.3838C13.272 18.6478 13.2 18.7918 13.008 18.8638H10.92C10.728 18.7918 10.656 18.6478 10.632 18.3838C10.608 18.1438 10.584 17.9038 10.56 17.6638C10.536 17.5438 10.536 17.3998 10.512 17.2798C10.512 17.2318 10.488 17.2078 10.488 17.1838V15.5038C10.488 15.3358 10.392 15.1678 10.248 15.0718C9.24 14.3998 8.712 13.2238 8.808 12.0478C8.904 11.0158 9.48 10.1038 10.368 9.55177C10.392 9.52777 10.416 9.55177 10.44 9.55177C10.464 9.55177 10.464 9.57577 10.464 9.59977L10.44 12.0238C10.44 12.2158 10.536 12.3838 10.704 12.4798L11.856 13.1518C12.024 13.2478 12.264 13.2478 12.432 13.1278L13.344 12.4798C13.488 12.3838 13.56 12.2158 13.56 12.0478L13.584 9.43177C13.584 9.40777 13.608 9.38377 13.608 9.38377C13.632 9.38377 13.656 9.35977 13.68 9.38377C14.208 9.76777 15.12 10.6318 15.216 12.0478C15.312 13.2718 14.736 14.4718 13.728 15.1678C13.584 15.2638 13.512 15.4078 13.512 15.5758C13.512 15.7918 13.488 16.1038 13.488 16.4158C13.488 16.6558 13.488 16.8958 13.464 17.0878C13.44 17.1358 13.416 17.2078 13.392 17.2798C13.416 17.4238 13.392 17.5678 13.368 17.6878ZM18.696 13.1758C18.624 13.3438 18.504 13.4398 18.312 13.4638C18.072 13.4878 17.832 13.5118 17.568 13.5358C17.424 13.5598 17.256 13.5838 17.112 13.5838C16.944 13.6078 16.824 13.7038 16.752 13.8718C16.68 14.0398 16.632 14.1598 16.584 14.2798C16.512 14.4478 16.512 14.5918 16.632 14.7358C16.8 14.9518 16.968 15.1678 17.16 15.3838L17.376 15.6718C17.568 15.9118 17.544 16.0558 17.328 16.2718C16.92 16.6798 16.512 17.0878 16.104 17.4958C15.888 17.7118 15.744 17.7118 15.504 17.5438L15.192 17.2798C15 17.1118 14.784 16.9678 14.592 16.7998C14.448 16.6798 14.28 16.6558 14.112 16.7518C14.064 16.7758 14.016 16.7998 13.968 16.8238C13.968 16.7038 13.968 16.5598 13.968 16.4398C13.968 16.1278 13.992 15.8158 13.992 15.5998C13.992 15.5758 13.992 15.5518 14.016 15.5518C15.144 14.7598 15.792 13.3918 15.696 12.0238C15.576 10.4398 14.568 9.45577 13.968 9.02377C13.8 8.90377 13.608 8.87977 13.416 8.97577C13.248 9.07177 13.128 9.23977 13.128 9.43177L13.104 12.0478C13.104 12.0718 13.104 12.0958 13.08 12.0958L12.168 12.7438C12.144 12.7678 12.12 12.7678 12.096 12.7438L10.944 12.0718C10.92 12.0718 10.92 12.0478 10.92 12.0238L10.944 9.59977C10.944 9.40777 10.848 9.23977 10.68 9.14377C10.512 9.04777 10.296 9.04777 10.152 9.14377C9.144 9.76777 8.472 10.8238 8.352 11.9998C8.232 13.3678 8.856 14.6878 9.984 15.4558C9.984 15.4558 10.008 15.4798 10.008 15.5038V16.8238C9.936 16.7998 9.864 16.7758 9.816 16.7278C9.648 16.6558 9.504 16.6798 9.36 16.7758C9.144 16.9438 8.928 17.1118 8.736 17.2798L8.424 17.5198C8.208 17.6878 8.04 17.6878 7.848 17.4958C7.44 17.0878 7.032 16.6798 6.6 16.2478C6.384 16.0318 6.384 15.8878 6.576 15.6478L6.816 15.3358C6.984 15.1198 7.152 14.9278 7.32 14.7118C7.44 14.5678 7.464 14.3998 7.368 14.2318C7.296 14.1118 7.248 13.9678 7.2 13.8238C7.152 13.6558 7.008 13.5598 6.84 13.5598C6.672 13.5358 6.504 13.5118 6.36 13.5118C6.12 13.4878 5.904 13.4638 5.664 13.4398C5.376 13.4158 5.256 13.2718 5.256 13.0078V12.8398C5.256 12.3118 5.256 11.7598 5.256 11.2318C5.256 10.9918 5.376 10.8478 5.616 10.8238C6.024 10.7758 6.408 10.7278 6.816 10.6798C7.008 10.6558 7.152 10.5598 7.224 10.3678C7.272 10.2478 7.32 10.1278 7.392 10.0078C7.464 9.83977 7.464 9.69577 7.344 9.52777C7.176 9.31177 7.008 9.09577 6.84 8.87977L6.6 8.59177C6.432 8.35177 6.432 8.20777 6.624 8.01577C6.696 7.94377 7.8 6.83977 7.896 6.74377C8.064 6.57577 8.256 6.55177 8.448 6.71977L8.544 6.79177C8.832 7.00777 9.12 7.24777 9.408 7.46377C9.576 7.58377 9.72 7.60777 9.912 7.51177C10.032 7.43977 10.176 7.39177 10.296 7.34377C10.464 7.27177 10.56 7.15177 10.584 6.98377C10.608 6.76777 10.632 6.57577 10.656 6.35977C10.68 6.16777 10.704 5.97577 10.728 5.78377C10.752 5.51977 10.896 5.39977 11.16 5.39977C11.76 5.39977 12.36 5.39977 12.96 5.39977C13.2 5.39977 13.344 5.51977 13.368 5.75977C13.44 6.23977 13.464 6.59977 13.512 6.95977C13.536 7.17577 13.632 7.29577 13.848 7.36777C13.968 7.41577 14.112 7.46377 14.208 7.53577C14.328 7.58377 14.496 7.63177 14.664 7.48777C14.88 7.31977 15.096 7.15177 15.312 6.98377L15.624 6.74377C15.84 6.57577 16.008 6.57577 16.2 6.76777C16.632 7.17577 17.04 7.60777 17.448 8.03977C17.64 8.23177 17.64 8.39977 17.472 8.61577L17.28 8.71177C17.064 8.97577 16.872 9.23977 16.656 9.50377C16.536 9.67177 16.512 9.83977 16.608 10.0078C16.68 10.1278 16.728 10.2718 16.776 10.3918C16.848 10.5598 16.968 10.6558 17.136 10.6798C17.28 10.7038 17.448 10.7278 17.592 10.7278C17.832 10.7518 18.096 10.7998 18.336 10.8238C18.528 10.8478 18.648 10.9198 18.72 11.1118V13.1758H18.696Z" fill="black"/>
</svg>
