<svg width="73" height="26" viewBox="0 0 73 26" fill="none" xmlns="http://www.w3.org/2000/svg">
<path opacity="0.6" d="M24.768 20.112C24.032 20.112 23.3707 19.984 22.784 19.728C22.208 19.4613 21.7547 19.0987 21.424 18.64C21.0933 18.1707 20.9227 17.632 20.912 17.024H22.464C22.5173 17.5467 22.7307 17.9893 23.104 18.352C23.488 18.704 24.0427 18.88 24.768 18.88C25.4613 18.88 26.0053 18.7093 26.4 18.368C26.8053 18.016 27.008 17.568 27.008 17.024C27.008 16.5973 26.8907 16.2507 26.656 15.984C26.4213 15.7173 26.128 15.5147 25.776 15.376C25.424 15.2373 24.9493 15.088 24.352 14.928C23.616 14.736 23.024 14.544 22.576 14.352C22.1387 14.16 21.76 13.8613 21.44 13.456C21.1307 13.04 20.976 12.4853 20.976 11.792C20.976 11.184 21.1307 10.6453 21.44 10.176C21.7493 9.70667 22.1813 9.344 22.736 9.088C23.3013 8.832 23.9467 8.704 24.672 8.704C25.7173 8.704 26.5707 8.96533 27.232 9.488C27.904 10.0107 28.2827 10.704 28.368 11.568H26.768C26.7147 11.1413 26.4907 10.768 26.096 10.448C25.7013 10.1173 25.1787 9.952 24.528 9.952C23.92 9.952 23.424 10.112 23.04 10.432C22.656 10.7413 22.464 11.1787 22.464 11.744C22.464 12.1493 22.576 12.48 22.8 12.736C23.0347 12.992 23.3173 13.1893 23.648 13.328C23.9893 13.456 24.464 13.6053 25.072 13.776C25.808 13.9787 26.4 14.1813 26.848 14.384C27.296 14.576 27.68 14.88 28 15.296C28.32 15.7013 28.48 16.256 28.48 16.96C28.48 17.504 28.336 18.016 28.048 18.496C27.76 18.976 27.3333 19.3653 26.768 19.664C26.2027 19.9627 25.536 20.112 24.768 20.112ZM38.1266 8.848V10.032H35.0866V20H33.6306V10.032H30.5746V8.848H38.1266ZM42.0149 10.032V13.76H46.0789V14.96H42.0149V18.8H46.5589V20H40.5589V8.832H46.5589V10.032H42.0149ZM56.858 12.112C56.858 13.04 56.538 13.8133 55.898 14.432C55.2687 15.04 54.3033 15.344 53.002 15.344H50.858V20H49.402V8.848H53.002C54.2607 8.848 55.2153 9.152 55.866 9.76C56.5273 10.368 56.858 11.152 56.858 12.112ZM53.002 14.144C53.8127 14.144 54.41 13.968 54.794 13.616C55.178 13.264 55.37 12.7627 55.37 12.112C55.37 10.736 54.5807 10.048 53.002 10.048H50.858V14.144H53.002ZM63.9413 11.344C64.0159 10.3627 64.3946 9.59467 65.0773 9.04C65.7599 8.48533 66.6453 8.208 67.7333 8.208C68.4586 8.208 69.0826 8.34133 69.6053 8.608C70.1386 8.864 70.5386 9.216 70.8053 9.664C71.0826 10.112 71.2213 10.6187 71.2213 11.184C71.2213 11.8453 71.0293 12.416 70.6453 12.896C70.2719 13.376 69.7813 13.6853 69.1733 13.824V13.904C69.8666 14.0747 70.4159 14.4107 70.8213 14.912C71.2266 15.4133 71.4293 16.0693 71.4293 16.88C71.4293 17.488 71.2906 18.0373 71.0133 18.528C70.7359 19.008 70.3199 19.3867 69.7653 19.664C69.2106 19.9413 68.5439 20.08 67.7653 20.08C66.6346 20.08 65.7066 19.7867 64.9813 19.2C64.2559 18.6027 63.8506 17.76 63.7653 16.672H65.1733C65.2479 17.312 65.5093 17.8347 65.9573 18.24C66.4053 18.6453 67.0026 18.848 67.7493 18.848C68.4959 18.848 69.0613 18.656 69.4453 18.272C69.8399 17.8773 70.0373 17.3707 70.0373 16.752C70.0373 15.952 69.7706 15.376 69.2373 15.024C68.7039 14.672 67.8986 14.496 66.8213 14.496H66.4533V13.28H66.8373C67.8186 13.2693 68.5599 13.1093 69.0613 12.8C69.5626 12.48 69.8133 11.9893 69.8133 11.328C69.8133 10.7627 69.6266 10.3093 69.2533 9.968C68.8906 9.62667 68.3679 9.456 67.6853 9.456C67.0239 9.456 66.4906 9.62667 66.0853 9.968C65.6799 10.3093 65.4399 10.768 65.3653 11.344H63.9413Z" fill="#2B2A2C"/>
<g opacity="0.6">
<circle cx="2" cy="2" r="2" fill="#2B2A2C"/>
<circle cx="10" cy="7" r="5" fill="#2B2A2C"/>
</g>
</svg>
