<svg width="73" height="26" viewBox="0 0 73 26" fill="none" xmlns="http://www.w3.org/2000/svg">
<path opacity="0.6" d="M24.768 20.112C24.032 20.112 23.3707 19.984 22.784 19.728C22.208 19.4613 21.7547 19.0987 21.424 18.64C21.0933 18.1707 20.9227 17.632 20.912 17.024H22.464C22.5173 17.5467 22.7307 17.9893 23.104 18.352C23.488 18.704 24.0427 18.88 24.768 18.88C25.4613 18.88 26.0053 18.7093 26.4 18.368C26.8053 18.016 27.008 17.568 27.008 17.024C27.008 16.5973 26.8907 16.2507 26.656 15.984C26.4213 15.7173 26.128 15.5147 25.776 15.376C25.424 15.2373 24.9493 15.088 24.352 14.928C23.616 14.736 23.024 14.544 22.576 14.352C22.1387 14.16 21.76 13.8613 21.44 13.456C21.1307 13.04 20.976 12.4853 20.976 11.792C20.976 11.184 21.1307 10.6453 21.44 10.176C21.7493 9.70667 22.1813 9.344 22.736 9.088C23.3013 8.832 23.9467 8.704 24.672 8.704C25.7173 8.704 26.5707 8.96533 27.232 9.488C27.904 10.0107 28.2827 10.704 28.368 11.568H26.768C26.7147 11.1413 26.4907 10.768 26.096 10.448C25.7013 10.1173 25.1787 9.952 24.528 9.952C23.92 9.952 23.424 10.112 23.04 10.432C22.656 10.7413 22.464 11.1787 22.464 11.744C22.464 12.1493 22.576 12.48 22.8 12.736C23.0347 12.992 23.3173 13.1893 23.648 13.328C23.9893 13.456 24.464 13.6053 25.072 13.776C25.808 13.9787 26.4 14.1813 26.848 14.384C27.296 14.576 27.68 14.88 28 15.296C28.32 15.7013 28.48 16.256 28.48 16.96C28.48 17.504 28.336 18.016 28.048 18.496C27.76 18.976 27.3333 19.3653 26.768 19.664C26.2027 19.9627 25.536 20.112 24.768 20.112ZM38.1266 8.848V10.032H35.0866V20H33.6306V10.032H30.5746V8.848H38.1266ZM42.0149 10.032V13.76H46.0789V14.96H42.0149V18.8H46.5589V20H40.5589V8.832H46.5589V10.032H42.0149ZM56.858 12.112C56.858 13.04 56.538 13.8133 55.898 14.432C55.2687 15.04 54.3033 15.344 53.002 15.344H50.858V20H49.402V8.848H53.002C54.2607 8.848 55.2153 9.152 55.866 9.76C56.5273 10.368 56.858 11.152 56.858 12.112ZM53.002 14.144C53.8127 14.144 54.41 13.968 54.794 13.616C55.178 13.264 55.37 12.7627 55.37 12.112C55.37 10.736 54.5807 10.048 53.002 10.048H50.858V14.144H53.002ZM63.7973 18.832C65.1519 17.744 66.2133 16.8533 66.9813 16.16C67.7493 15.456 68.3946 14.7253 68.9173 13.968C69.4506 13.2 69.7173 12.448 69.7173 11.712C69.7173 11.0187 69.5466 10.4747 69.2053 10.08C68.8746 9.67467 68.3359 9.472 67.5893 9.472C66.8639 9.472 66.2986 9.70133 65.8933 10.16C65.4986 10.608 65.2853 11.2107 65.2533 11.968H63.8453C63.8879 10.7733 64.2506 9.85067 64.9333 9.2C65.6159 8.54933 66.4959 8.224 67.5733 8.224C68.6719 8.224 69.5413 8.528 70.1813 9.136C70.8319 9.744 71.1573 10.5813 71.1573 11.648C71.1573 12.5333 70.8906 13.3973 70.3573 14.24C69.8346 15.072 69.2373 15.808 68.5653 16.448C67.8933 17.0773 67.0346 17.8133 65.9893 18.656H71.4933V19.872H63.7973V18.832Z" fill="#2B2A2C"/>
<g opacity="0.6">
<circle cx="2" cy="2" r="2" fill="#2B2A2C"/>
<circle cx="10" cy="7" r="5" fill="#2B2A2C"/>
</g>
</svg>
