<svg width="24" height="24" viewBox="0 0 24 24" fill="none" xmlns="http://www.w3.org/2000/svg">
<path d="M14.2081 18.3839H9.43205C7.72805 18.3839 6.33605 16.9919 6.33605 15.2879C6.33605 13.5839 7.72805 12.1919 9.43205 12.1919H14.5681C16.5121 12.1919 18.0961 10.6079 18.0961 8.66387C18.0961 6.71987 16.5121 5.13587 14.5681 5.13587H8.44805C8.35205 4.75187 8.01605 4.46387 7.60805 4.46387C7.12805 4.46387 6.74405 4.84787 6.74405 5.32787C6.74405 5.80787 7.12805 6.19187 7.60805 6.19187C7.99205 6.19187 8.32805 5.92787 8.44805 5.56787H8.47205H14.5681C16.2721 5.56787 17.6641 6.95987 17.6641 8.66387C17.6641 10.3679 16.2721 11.7599 14.5681 11.7599H9.43205C7.48805 11.7599 5.90405 13.3439 5.90405 15.2879C5.90405 17.2319 7.48805 18.8159 9.43205 18.8159H14.2081C14.3281 18.8159 14.4241 18.7199 14.4241 18.5999C14.4241 18.4799 14.3281 18.3839 14.2081 18.3839ZM7.60805 5.73587C7.36805 5.73587 7.17605 5.54387 7.17605 5.30387C7.17605 5.06387 7.36805 4.87187 7.60805 4.87187C7.84805 4.87187 8.04005 5.06387 8.04005 5.30387C8.04005 5.54387 7.84805 5.73587 7.60805 5.73587Z" fill="black"/>
<path d="M16.008 13.6318C15.936 13.6318 15.864 13.6318 15.816 13.6318C15.216 13.6558 14.664 13.9918 14.376 14.5438C14.064 15.0958 14.064 15.7438 14.352 16.3198L15.624 18.6958C15.672 18.7918 15.768 18.8638 15.888 18.8638C16.008 18.8638 16.104 18.7918 16.152 18.6958L17.448 16.3198C17.76 15.7678 17.736 15.0958 17.448 14.5438C17.16 13.9918 16.608 13.6558 16.008 13.6318ZM17.088 16.0798L15.912 18.2158L14.736 16.0798C14.52 15.6718 14.52 15.1678 14.76 14.7358C15 14.3278 15.384 14.0878 15.84 14.0638C15.864 14.0638 15.888 14.0638 15.912 14.0638C15.936 14.0638 15.96 14.0638 15.984 14.0638C16.44 14.0878 16.824 14.3278 17.064 14.7358C17.304 15.1678 17.304 15.6718 17.088 16.0798Z" fill="black"/>
<path d="M15.912 14.4717C15.36 14.4717 14.928 14.9277 14.928 15.4557C14.928 15.9837 15.384 16.4397 15.912 16.4397C16.44 16.4397 16.896 15.9837 16.896 15.4557C16.896 14.9277 16.464 14.4717 15.912 14.4717ZM15.912 16.0077C15.6 16.0077 15.36 15.7677 15.36 15.4557C15.36 15.1437 15.6 14.9037 15.912 14.9037C16.224 14.9037 16.464 15.1437 16.464 15.4557C16.464 15.7677 16.224 16.0077 15.912 16.0077Z" fill="black"/>
</svg>
