<svg width="91" height="32" viewBox="0 0 91 32" fill="none" xmlns="http://www.w3.org/2000/svg">
<g clip-path="url(#clip0_1_71886)">
<path d="M31.8251 11.0844L27.4958 21.0671H25.586L26.9228 17.9931L24.0898 11.0527H26.1271L27.2094 14.0951L27.8779 16.0917L28.6101 14.1584L29.9151 11.0844H31.8251Z" fill="#EEF2F4"/>
<path d="M33.796 15.2347C33.8597 15.6783 34.0826 16.0586 34.4327 16.3121C34.8147 16.5974 35.2922 16.7242 35.897 16.7242C36.2473 16.7242 36.5974 16.6608 36.9475 16.534C37.2977 16.4073 37.5841 16.2489 37.7752 16.0586L38.8893 17.1678C38.5392 17.5481 38.0935 17.8334 37.5205 18.0235C36.9793 18.2136 36.4063 18.3088 35.8334 18.3088C34.6237 18.3088 33.6688 17.9601 32.9685 17.2946C32.2681 16.5974 31.918 15.7101 31.918 14.5692C31.918 13.4917 32.2681 12.6043 32.9366 11.9071C33.6369 11.2099 34.5282 10.8613 35.6742 10.8613C36.8838 10.8613 37.8387 11.2416 38.4755 11.9705C39.1122 12.7311 39.3986 13.8086 39.2394 15.2029H33.796V15.2347ZM37.6478 13.7769C37.5841 13.3332 37.3931 12.9846 37.0748 12.7628C36.7566 12.541 36.3427 12.4142 35.8015 12.4142C35.3241 12.4142 34.8784 12.541 34.5282 12.7628C34.1781 12.9846 33.9234 13.3332 33.796 13.7769H37.6478Z" fill="#EEF2F4"/>
<path d="M41.9768 8.13867V18.1531H40.2578V8.13867H41.9768Z" fill="#EEF2F4"/>
<path d="M44.8446 8.13867V18.1531H43.0938V8.13867H44.8446Z" fill="#EEF2F4"/>
<path d="M51.9441 12.0029C52.6444 12.7001 52.9628 13.5874 52.9628 14.6332C52.9628 15.679 52.6126 16.5664 51.9441 17.2635C51.2756 17.9608 50.3843 18.3094 49.2702 18.3094C48.1561 18.3094 47.2647 17.9608 46.5962 17.2635C45.9277 16.5664 45.6094 15.679 45.6094 14.6332C45.6094 13.5874 45.9595 12.7318 46.628 12.0029C47.2965 11.3057 48.1879 10.9571 49.302 10.9571C50.3843 10.9254 51.2756 11.274 51.9441 12.0029ZM47.8695 13.1437C47.5194 13.5557 47.3602 14.0311 47.3602 14.6015C47.3602 15.172 47.5194 15.6473 47.8695 16.0593C48.2196 16.4712 48.6972 16.6615 49.2702 16.6615C49.875 16.6615 50.3525 16.4712 50.6709 16.0593C51.021 15.6473 51.1802 15.172 51.1802 14.6015C51.1802 14.0628 50.9891 13.5557 50.6389 13.1437C50.2888 12.7318 49.8113 12.5099 49.2384 12.5099C48.6972 12.5099 48.2196 12.7318 47.8695 13.1437Z" fill="#EEF2F4"/>
<path d="M59.9655 11.0527L61.5253 16.3452L63.1487 11.0527H65.0905L62.6075 18.1516H60.5703L59.8381 16.0599L59.2015 13.7148L58.5648 16.0599L57.8327 18.1516H55.7954L53.3125 11.0527H55.2543L56.8777 16.3452L58.4056 11.0527H59.9655Z" fill="#EEF2F4"/>
<path d="M70.7569 12.2565C70.0247 11.6227 69.3244 11.5276 68.5287 11.5276C67.4144 11.5276 66.364 11.9396 66.3958 12.8269C66.4277 13.7777 67.6691 13.9678 68.5604 14.1263C69.8337 14.3481 71.5528 14.5699 71.4891 16.1862C71.4571 17.739 69.8337 18.151 68.5604 18.151C67.3189 18.151 66.0774 17.6756 65.4727 16.7249L65.982 16.2813C66.5868 17.137 67.6373 17.4855 68.5922 17.4855C69.4518 17.4855 70.7569 17.2636 70.8206 16.1544C70.8523 15.1404 69.6745 14.9502 68.4967 14.7601C67.128 14.5382 65.7592 14.2847 65.7273 12.8586C65.7273 11.4642 67.0961 10.8621 68.5287 10.8938C69.5791 10.8938 70.4704 11.179 71.1707 11.8445L70.7569 12.2565Z" fill="#EEF2F4"/>
<path d="M73.3331 8.00977V18.0242H72.6328V8.00977H73.3331Z" fill="#EEF2F4"/>
<path d="M75.8179 8.67776C75.8179 9.40666 74.6719 9.40666 74.6719 8.67776C74.6719 7.94886 75.8179 7.91717 75.8179 8.67776ZM74.863 10.9278V18.0266H75.5632V10.9278H74.863Z" fill="#EEF2F4"/>
<path d="M82.9813 17.0411C82.2491 17.77 81.326 18.0869 80.4028 18.0869C78.3974 18.0869 76.7422 16.7242 76.7422 14.4741C76.7422 12.2557 78.3337 10.8613 80.4028 10.8613C81.326 10.8613 82.2809 11.2099 82.9813 11.9071L82.5356 12.3508C81.9627 11.7804 81.1668 11.4952 80.4028 11.4952C78.7794 11.4952 77.4425 12.541 77.4425 14.4424C77.4425 16.3439 78.7794 17.3897 80.4028 17.3897C81.1668 17.3897 81.9308 17.1044 82.5038 16.5024L82.9813 17.0411Z" fill="#EEF2F4"/>
<path d="M83.8711 14.5058C83.8711 12.3825 85.4945 10.8613 87.4682 10.8613C89.4735 10.8613 91.2562 12.0656 90.9697 14.8227H84.5714C84.7305 16.4706 86.0038 17.4531 87.4682 17.4531C88.3913 17.4531 89.5054 17.0728 90.0147 16.3755L90.5241 16.7875C89.8238 17.675 88.6141 18.1503 87.4682 18.1503C85.4627 18.1185 83.8711 16.7559 83.8711 14.5058ZM90.3331 14.2206C90.3331 12.4776 89.1553 11.4952 87.4682 11.4952C86.0038 11.4952 84.7305 12.4776 84.5714 14.2206H90.3331Z" fill="#EEF2F4"/>
<path d="M4.64062 19.0711L14.9544 12.416L14.9226 22.2719C14.9226 22.8741 14.6042 23.4445 14.0949 23.7614L4.92712 29.4341C4.79979 29.4976 4.67246 29.4341 4.67246 29.2757L4.64062 19.0711Z" fill="#EEF2F4"/>
<path d="M1.23438 16.535L1.64821 6.67912L10.6886 0.943039C11.0706 0.721202 11.5481 0.97473 11.5481 1.41841V10.1335C11.5481 10.1335 11.5481 11.2109 13.7446 12.0666C16.1639 13.0173 18.8378 12.13 18.8378 12.13L9.19251 17.9611C9.19251 17.9611 6.00926 19.3872 4.1948 18.9118C1.90286 18.278 1.23438 16.535 1.23438 16.535Z" fill="#BDCCD1"/>
<path d="M8.90625 18.2484V8.55092L18.2014 2.87823C18.7744 2.52962 19.5383 2.94161 19.5383 3.63881V10.7693C19.5383 11.3714 19.22 11.9419 18.7107 12.2588L8.90625 18.2484Z" fill="#EEF2F4"/>
<path d="M5.17787 19.1657C5.14604 19.1657 5.11422 19.1657 5.08238 19.1657C4.09557 19.1341 3.10876 18.6587 2.15378 17.7714C1.45347 17.1058 1.07148 16.472 1.03965 16.4404L1.00781 16.377V6.93303C1.00781 6.6795 1.23064 6.45766 1.4853 6.48936C1.70813 6.52105 1.86729 6.71119 1.86729 6.93303V15.9332C1.86729 16.0284 1.89913 16.0917 1.93095 16.1551C2.24928 16.6622 3.29975 18.2468 5.05055 18.2784C6.26018 18.3101 7.43798 17.8665 8.0428 17.613C8.20196 17.5496 8.29747 17.3911 8.29747 17.2009V8.70773C8.29747 8.4542 8.52029 8.23237 8.77494 8.26406C8.99778 8.29575 9.15694 8.4859 9.15694 8.70773V17.7396C9.15694 17.8981 9.06145 18.0249 8.93411 18.0883C8.36113 18.4052 6.57851 19.1657 5.17787 19.1657Z" fill="white"/>
<path d="M4.67222 29.7496C4.41755 29.7496 4.22656 29.5595 4.22656 29.306V18.8796C4.22656 18.6261 5.08604 18.6261 5.08604 18.8796V29.306C5.11787 29.5595 4.92687 29.7496 4.67222 29.7496Z" fill="white"/>
</g>
<defs>
<clipPath id="clip0_1_71886">
<rect width="91" height="30.3333" fill="white" transform="translate(0 0.705078)"/>
</clipPath>
</defs>
</svg>
